<?xml version="1.0" encoding="utf-8"?>
<svg id="master-artboard" viewBox="0 0 342.3219909667969 374.45916748046875" version="1.1" xmlns="http://www.w3.org/2000/svg" x="0px" y="0px" width="342.3219909667969px" height="374.45916748046875px" enable-background="new 0 0 1400 980"><rect id="ee-background" x="0" y="0" width="342.3219909667969" height="374.45916748046875" style="fill: white; fill-opacity: 0; pointer-events: none;"/>
























<path d="M 369.500015 819.700012 A 100.800003 12.6 0 0 1 268.700012 832.300013 A 100.800003 12.6 0 0 1 167.900009 819.700012 A 100.800003 12.6 0 0 1 268.700012 807.100012 A 100.800003 12.6 0 0 1 369.500015 819.700012 Z" fill="#668482" transform="matrix(1, 0, 0, 1, -72.66490173339844, -468.284912109375)"/><path fill="#F7961D" d="M351.1,562.2c-5.4-13.5-10.7-27.1-18-39.6c-7.2-12.5-16.4-23.9-28.1-31.7c-5.9-3.9-12.2-6.8-18.8-9&#10;&#9;&#9;&#9;c-10.1-3.4-20.6-4.9-31.2-4.9h-14.5c-10.6,0-21.2,1.5-31.2,4.9c-6.6,2.2-12.9,5.1-18.8,9c-11.7,7.8-20.9,19.3-28.1,31.7&#10;&#9;&#9;&#9;c-7.2,12.5-12.6,26.1-18,39.6c-2.8,7.2-5.6,15.8-1.6,22.3c15.6-11.6,35.8-12.7,54.8-13.4c15.8-0.6,31.9-1.1,47.5,1.9&#10;&#9;&#9;&#9;c0,0.4,0,0.8-0.1,1.2c0.9-0.2,1.9-0.5,2.8-0.7c0.9,0.2,1.9,0.4,2.8,0.7c0-0.4,0-0.8-0.1-1.2c15.5-3,31.6-2.5,47.5-1.9&#10;&#9;&#9;&#9;c19,0.7,39.2,1.8,54.8,13.4C356.7,578,354,569.3,351.1,562.2z" transform="matrix(1, 0, 0, 1, -72.66490173339844, -468.284912109375)"/><path fill="#2D2B2A" d="M352.7,585.5c-0.2,0-0.4-0.1-0.6-0.2c-15.8-11.7-37.1-12.5-54.2-13.2c-5.8-0.2-12.4-0.5-18.9-0.5&#10;&#9;&#9;&#9;c-10.7,0-19.5,0.7-27.4,2.2l0,0.1c0,0.1,0,0.2,0,0.3c0,0.6-0.5,1-1.1,1.1c-0.1,0-0.2,0-0.3,0c-0.8-0.2-1.7-0.4-2.5-0.6&#10;&#9;&#9;&#9;c-0.8,0.2-1.7,0.4-2.5,0.6c-0.3,0.1-0.7,0-0.9-0.2c-0.3-0.2-0.4-0.5-0.4-0.9l0-0.3c-7.9-1.5-16.7-2.2-27.4-2.2&#10;&#9;&#9;&#9;c-6.5,0-13.1,0.2-18.9,0.5c-17.1,0.6-38.3,1.4-54.2,13.2c-0.2,0.2-0.5,0.2-0.8,0.2c-0.3-0.1-0.5-0.2-0.7-0.5&#10;&#9;&#9;&#9;c-4.1-6.7-1.7-15.1,1.5-23.2c5.3-13.3,10.8-27.1,18-39.7c8.2-14.2,17.8-25,28.5-32.1c5.6-3.7,11.8-6.7,19.1-9.1&#10;&#9;&#9;&#9;c9.8-3.3,20.4-4.9,31.6-4.9H255c11.2,0,21.8,1.7,31.6,4.9c7.2,2.4,13.4,5.4,19.1,9.1c10.7,7.1,20.3,17.9,28.5,32.1&#10;&#9;&#9;&#9;c7.3,12.6,12.8,26.4,18,39.7c3.2,8.1,5.6,16.5,1.5,23.2c-0.2,0.3-0.4,0.4-0.7,0.5C352.8,585.5,352.8,585.5,352.7,585.5z&#10;&#9;&#9;&#9; M279,569.6c6.5,0,13.1,0.2,19,0.5c17,0.6,38.1,1.4,54.4,12.9c2.8-5.8,0.6-13.2-2.2-20.3c-5.3-13.3-10.7-27-17.9-39.4&#10;&#9;&#9;&#9;c-8-13.9-17.4-24.5-27.8-31.4c-5.5-3.6-11.5-6.5-18.5-8.9c-9.6-3.2-20-4.8-30.9-4.8h-14.5c-10.9,0-21.3,1.6-30.9,4.8&#10;&#9;&#9;&#9;c-7,2.3-13.1,5.3-18.5,8.9c-10.4,6.9-19.8,17.5-27.8,31.4c-7.2,12.4-12.6,26.2-17.9,39.4c-2.8,7.2-5,14.6-2.2,20.3&#10;&#9;&#9;&#9;c16.2-11.5,37.3-12.2,54.4-12.9c5.9-0.2,12.5-0.5,19-0.5c11.3,0,20.4,0.8,28.7,2.4c0.5,0.1,0.8,0.5,0.9,0.9c0.5-0.1,1-0.2,1.5-0.3&#10;&#9;&#9;&#9;c0.2,0,0.3,0,0.5,0c0.5,0.1,1,0.2,1.5,0.3c0.1-0.5,0.4-0.8,0.9-0.9C258.6,570.3,267.7,569.6,279,569.6z" transform="matrix(1, 0, 0, 1, -72.66490173339844, -468.284912109375)"/><path fill="#D65037" d="M307.2,538.2c-31.4-10-64.4-13.7-97-10.9c-21.3,1.9-43.9,7.4-58.4,24.6c-6,7.1-10.3,17.6-6.5,26.4&#10;&#9;&#9;c2.8,6.4,9.4,10,15.8,10.7c6.4,0.8,12.9-0.8,19.2-2.3c39.8-8.9,80.5-11.8,121-14.7c11.2-0.8,22.7-1.5,33.4,2.1&#10;&#9;&#9;c3.9,1.3,8.8,3,11.6-0.3c2.9-3.4,0.9-9-1.8-12.6C335.5,548.9,321.2,542.6,307.2,538.2z" transform="matrix(1, 0, 0, 1, -72.66490173339844, -468.284912109375)"/><path fill="#F7961D" d="M354.1,615.2c4,1.1,7.8-2.4,6.9-6.5c-1.9-9-0.7-19.2-3.5-28.2c-3.4-11-12.4-19.4-22.2-25.4&#10;&#9;&#9;&#9;c-26.2-16.3-58.3-19-89.1-20.5c0,0,0,0,0,0c-0.2,0-0.3,0-0.5,0c-0.2,0-0.3,0-0.5,0c0,0,0,0,0,0c-30.8,1.5-62.9,4.3-89.1,20.5&#10;&#9;&#9;&#9;c-9.8,6.1-18.8,14.4-22.2,25.4c-2.8,9-1.6,19.2-3.5,28.2c-0.9,4.1,2.9,7.7,6.9,6.5c33.1-9.4,67.5-14,101.8-13.5c0,0.1,0,0.3,0,0.4&#10;&#9;&#9;&#9;c2.2-0.1,4.4-0.2,6.6-0.3c2.2,0.1,4.4,0.1,6.6,0.3c0-0.1,0-0.3,0-0.4C286.6,601.3,321,605.9,354.1,615.2z" transform="matrix(1, 0, 0, 1, -72.66490173339844, -468.284912109375)"/><path fill="#2D2B2A" d="M355.6,616.5c-0.6,0-1.2-0.1-1.8-0.3c-32.7-9.3-66.6-13.8-100.7-13.5c0,0,0,0-0.1,0.1&#10;&#9;&#9;&#9;c-0.2,0.2-0.5,0.3-0.8,0.3c-2.2-0.1-4.4-0.2-6.6-0.3c-2.1,0.1-4.3,0.1-6.5,0.3c-0.3,0-0.6-0.1-0.8-0.3c0,0,0,0-0.1-0.1&#10;&#9;&#9;&#9;c-1.1,0-2.3,0-3.4,0c-32.9,0-65.7,4.6-97.3,13.5c-2.5,0.7-5.3-0.2-6.9-2.2c-1.3-1.6-1.8-3.6-1.3-5.6c0.8-3.9,1.1-8.1,1.3-12.2&#10;&#9;&#9;&#9;c0.3-5.4,0.6-10.9,2.2-16.1c3-9.8,10.6-18.6,22.6-26c26.3-16.3,58.6-19.2,89.4-20.7c0.1,0,0.3-0.1,0.4-0.1l0.5,0l0.4,0&#10;&#9;&#9;&#9;c0.1,0,0.3,0,0.4,0.1c30.8,1.5,63,4.3,89.3,20.7c12,7.5,19.6,16.2,22.6,26c1.6,5.2,1.9,10.7,2.2,16.1c0.2,4.1,0.5,8.3,1.3,12.2&#10;&#9;&#9;&#9;c0.4,2-0.1,4-1.3,5.6C359.4,615.6,357.6,616.5,355.6,616.5z M256.5,600.6c33.1,0,66.1,4.6,97.9,13.6c1.7,0.5,3.5-0.1,4.7-1.5&#10;&#9;&#9;&#9;c0.9-1.1,1.2-2.4,0.9-3.8c-0.8-4-1.1-8.3-1.3-12.5c-0.3-5.2-0.6-10.7-2.1-15.6c-2.9-9.3-10.2-17.7-21.7-24.8&#10;&#9;&#9;&#9;c-26-16.1-58-18.9-88.6-20.4c-0.1,0-0.1,0-0.2,0l-0.2,0l-0.3,0c-0.1,0-0.1,0-0.2,0c-30.6,1.5-62.6,4.2-88.6,20.4&#10;&#9;&#9;&#9;c-11.6,7.2-18.9,15.5-21.7,24.8c-1.5,4.9-1.8,10.3-2.1,15.6c-0.2,4.2-0.5,8.5-1.3,12.5c-0.3,1.4,0,2.7,0.9,3.8&#10;&#9;&#9;&#9;c1.1,1.4,2.9,2,4.7,1.5c33.2-9.4,67.6-14,102.1-13.6c0.3,0,0.6,0.1,0.8,0.3c1.9-0.1,3.8-0.2,5.8-0.2c2,0.1,3.9,0.1,5.8,0.2&#10;&#9;&#9;&#9;c0.2-0.2,0.5-0.3,0.8-0.3C253.7,600.6,255.1,600.6,256.5,600.6z" transform="matrix(1, 0, 0, 1, -72.66490173339844, -468.284912109375)"/><path fill="#D65037" d="M312.4,574.5c-34.3-10-70.5-13.7-106.1-10.9c-23.3,1.9-48.1,7.4-63.9,24.6c-6.6,7.1-11.3,17.6-7.1,26.4&#10;&#9;&#9;c3.1,6.4,10.3,10,17.3,10.7s14.1-0.8,21.1-2.3c43.5-8.9,88-11.8,132.4-14.7c12.2-0.8,24.8-1.5,36.5,2.1c4.3,1.3,9.6,3,12.7-0.3&#10;&#9;&#9;c3.2-3.4,1-9-1.9-12.6C343.3,585.2,327.7,579,312.4,574.5z" transform="matrix(1, 0, 0, 1, -72.66490173339844, -468.284912109375)"/><path fill="#33262D" d="M363.6,652c-5.6-15.6-13.8-30.6-24.1-44.5c-6.8-9.1-14.6-17.8-25.2-23.8c-8-4.5-17.3-7.4-26.7-9.4&#10;&#9;&#9;&#9;c-12.1-2.6-24.6-4.1-37.2-4.2c-0.6,0-1.2,0-1.8,0c-0.1,0-0.1,0-0.2,0c-0.2,0-0.4,0-0.7,0c-0.2,0-0.4,0-0.7,0c-0.1,0-0.1,0-0.2,0&#10;&#9;&#9;&#9;c-0.6,0-1.2,0-1.8,0c-12.5,0.2-25.1,1.6-37.2,4.2c-9.4,2-18.7,4.9-26.7,9.4c-10.6,6-18.5,14.8-25.3,23.8&#10;&#9;&#9;&#9;c-10.3,13.9-18.4,28.9-24.1,44.5c-3.9,10.8-6.4,23.1,0.8,32.7c7,9.4,21.1,13.1,34.1,15.5c21.5,3.9,43.4,6,65.3,7.9&#10;&#9;&#9;&#9;c4.7,1.5,10.2,1.6,15.6,1.3c5.3,0.3,10.9,0.3,15.6-1.3c21.9-1.8,43.8-4,65.3-7.9c13-2.4,27.1-6.1,34.1-15.5&#10;&#9;&#9;&#9;C370,675.2,367.5,662.8,363.6,652z" transform="matrix(1, 0, 0, 1, -72.66490173339844, -468.284912109375)"/><path fill="#2D2B2A" d="M252.6,710.5c-1.5,0-3.1-0.1-4.9-0.2c-1.8,0.1-3.4,0.2-4.9,0.2c-4.4,0-7.9-0.5-10.9-1.4&#10;&#9;&#9;&#9;c-19.8-1.7-42.8-3.8-65.3-7.9c-13.1-2.4-27.5-6.1-34.8-15.9c-7.9-10.6-4.3-24.3-0.9-33.7c5.7-15.7,13.8-30.8,24.2-44.7&#10;&#9;&#9;&#9;c5.8-7.7,13.9-17.5,25.6-24.1c7.1-4,15.7-7.1,27-9.5c12.1-2.6,24.7-4.1,37.4-4.3c0.6,0,1.2,0,1.8,0l1.3,0l0.2,0c0,0,0.1,0,0.1,0&#10;&#9;&#9;&#9;c0.7,0,1.3,0,1.9,0c12.7,0.2,25.2,1.6,37.4,4.3c11.3,2.5,19.9,5.5,27,9.5c11.7,6.6,19.8,16.4,25.6,24.1c10.4,14,18.6,29,24.2,44.7&#10;&#9;&#9;&#9;c3.4,9.4,7,23.1-0.9,33.7c-7.3,9.8-21.7,13.5-34.8,15.9c-22.5,4.1-45.5,6.2-65.3,7.9C260.6,710.1,257,710.5,252.6,710.5z&#10;&#9;&#9;&#9; M247.8,708.2C247.8,708.2,247.8,708.2,247.8,708.2c1.8,0.1,3.4,0.2,4.9,0.2c4.2,0,7.6-0.4,10.4-1.4c0.1,0,0.2,0,0.2,0&#10;&#9;&#9;&#9;c19.8-1.7,42.8-3.8,65.3-7.8c12.7-2.3,26.6-5.9,33.5-15.1c7.3-9.8,3.8-22.8,0.6-31.7c-5.6-15.5-13.7-30.4-23.9-44.2&#10;&#9;&#9;&#9;c-5.6-7.6-13.6-17.1-24.9-23.5c-6.9-3.9-15.3-6.9-26.4-9.3c-12-2.6-24.5-4-37-4.2c-0.6,0-1.2,0-1.8,0c0,0-0.1,0-0.1,0l-1.4,0&#10;&#9;&#9;&#9;l-0.2,0c-0.6,0-1.2,0-1.8,0c-12.5,0.2-25,1.6-37,4.2c-11.1,2.4-19.5,5.4-26.4,9.3c-11.3,6.4-19.3,16-24.9,23.5&#10;&#9;&#9;&#9;c-10.3,13.8-18.3,28.7-23.9,44.2c-3.2,8.9-6.7,21.9,0.6,31.7c6.9,9.2,20.8,12.8,33.5,15.1c22.5,4.1,45.5,6.2,65.3,7.8&#10;&#9;&#9;&#9;c0.1,0,0.2,0,0.2,0c2.8,0.9,6.2,1.4,10.4,1.4C244.3,708.4,245.9,708.3,247.8,708.2C247.7,708.2,247.7,708.2,247.8,708.2z" transform="matrix(1, 0, 0, 1, -72.66490173339844, -468.284912109375)"/><path fill="#286C97" d="M353.9,686.5c0.1-22.9-6-45.9-17.4-65.8c2.1,1.4,4.1,2.8,6.2,4.2c-1.9-6.5-5.4-12.4-10.2-17.1&#10;&#9;&#9;&#9;c2.9,1.9,5.9,3.9,8.8,5.8c-13.8-20.2-37.4-33.4-61.8-34.5c-10.4-0.5-21,1.2-30.3,5.7c-9.3-4.6-19.9-6.2-30.3-5.7&#10;&#9;&#9;&#9;c-24.4,1.2-48,14.3-61.8,34.5c2.9-1.9,5.9-3.9,8.8-5.8c-4.8,4.7-8.4,10.7-10.2,17.1c2.1-1.4,4.1-2.8,6.2-4.2&#10;&#9;&#9;&#9;c-11.4,19.9-17.5,42.8-17.4,65.8c2.6-4.9,5.2-9.8,7.9-14.7c-5.5,35.7,4.4,73.4,26.6,101.9c7.5,9.7,16.8,18.5,28.4,22.6&#10;&#9;&#9;&#9;c7.2,2.5,14.9,3.1,22.5,3.3c0,0.2,0,0.3,0,0.5c6.5-0.1,12.9-0.2,19.4-0.2c6.5,0.1,12.9,0.2,19.4,0.2c0-0.2,0-0.3,0-0.5&#10;&#9;&#9;&#9;c7.7-0.2,15.3-0.7,22.5-3.3c11.6-4.1,20.8-12.9,28.4-22.6c22.2-28.4,32.1-66.2,26.6-101.9C348.7,676.7,351.3,681.6,353.9,686.5z" transform="matrix(1, 0, 0, 1, -72.66490173339844, -468.284912109375)"/><path fill="#2D2B2A" d="M268.6,801.1C268.6,801.1,268.6,801.1,268.6,801.1C268.5,801.1,268.5,801.1,268.6,801.1l-19.4-0.3&#10;&#9;&#9;&#9;l-19.3,0.2c-0.3,0-0.6-0.1-0.8-0.3c-0.1-0.1-0.1-0.1-0.2-0.2c-7.2-0.2-14.8-0.8-21.9-3.3c-10.2-3.6-19.6-11.1-28.9-22.9&#10;&#9;&#9;&#9;c-21.1-27-31.2-62.8-27.6-96.9l-5.1,9.6c-0.2,0.4-0.7,0.6-1.2,0.5c-0.5-0.1-0.8-0.5-0.8-1c-0.1-21.7,5.2-43.2,15.4-62.4l-2.5,1.7&#10;&#9;&#9;&#9;c-0.4,0.3-0.9,0.2-1.2,0c-0.4-0.3-0.5-0.7-0.4-1.2c1.2-4.2,3.1-8.2,5.6-11.8l-2.6,1.7c-0.4,0.3-1,0.2-1.3-0.1&#10;&#9;&#9;&#9;c-0.4-0.4-0.4-0.9-0.1-1.3c13.9-20.4,37.9-33.8,62.6-35c11-0.5,21.6,1.4,30.4,5.6c8.7-4.2,19.3-6.1,30.4-5.6&#10;&#9;&#9;&#9;c24.6,1.2,48.6,14.5,62.5,34.8c0.2,0.2,0.3,0.5,0.3,0.7c0,0.6-0.5,1.1-1.1,1.1c0,0,0,0,0,0c-0.2,0-0.4-0.1-0.6-0.2l-2.6-1.7&#10;&#9;&#9;&#9;c2.5,3.5,4.4,7.5,5.6,11.6c0.1,0.1,0.1,0.3,0.1,0.5c0,0.6-0.5,1.1-1.1,1.1c0,0,0,0,0,0c-0.2,0-0.4-0.1-0.6-0.2l-2.5-1.7&#10;&#9;&#9;&#9;c10.1,19.2,15.4,40.7,15.4,62.4c0,0.5-0.3,0.9-0.8,1c-0.5,0.1-1-0.1-1.2-0.5l-5.1-9.6c3.6,34.1-6.5,69.9-27.6,96.9&#10;&#9;&#9;&#9;c-9.3,11.8-18.7,19.3-28.9,22.9c-7.1,2.5-14.7,3.1-21.9,3.3C269.3,800.9,269,801.1,268.6,801.1z M249.2,798.7l18.5,0.2&#10;&#9;&#9;&#9;c0-0.1,0.1-0.1,0.1-0.2c0.2-0.2,0.5-0.3,0.8-0.3c7.3-0.2,15-0.7,22.2-3.2c9.8-3.4,18.9-10.7,27.9-22.2&#10;&#9;&#9;&#9;C340.5,745,350.4,707.2,345,672c-0.1-0.5,0.2-1,0.7-1.2c0.5-0.2,1,0.1,1.3,0.5l5.8,10.8c-0.6-21.4-6.5-42.3-17.2-60.9&#10;&#9;&#9;&#9;c-0.2-0.4-0.2-1,0.2-1.3c0.4-0.3,0.9-0.4,1.3-0.1l3.6,2.4c-2-5.1-5-9.8-9-13.7c-0.4-0.4-0.4-1-0.1-1.4c0.3-0.4,1-0.5,1.4-0.2&#10;&#9;&#9;&#9;l3.7,2.5c-13.9-17.1-35.3-28.1-57.3-29.2c-10.9-0.5-21.3,1.4-29.8,5.6c-0.3,0.1-0.6,0.1-0.9,0c-8.5-4.2-18.9-6.1-29.8-5.6&#10;&#9;&#9;&#9;c-22,1-43.5,12.1-57.3,29.2l3.7-2.4c0.5-0.3,1.1-0.2,1.4,0.2c0.3,0.4,0.3,1-0.1,1.4c-3.9,3.9-7,8.6-9,13.7l3.6-2.4&#10;&#9;&#9;&#9;c0.4-0.3,1-0.2,1.3,0.1c0.4,0.3,0.4,0.9,0.2,1.3c-10.6,18.6-16.5,39.6-17.2,60.9l5.8-10.8c0.2-0.5,0.8-0.7,1.3-0.5&#10;&#9;&#9;&#9;c0.5,0.2,0.8,0.7,0.7,1.2c-5.4,35.2,4.5,73,26.4,101.1c9,11.5,18.1,18.8,27.9,22.2c7.2,2.5,14.9,3,22.2,3.2c0.3,0,0.6,0.1,0.8,0.3&#10;&#9;&#9;&#9;c0,0,0.1,0.1,0.1,0.2L249.2,798.7z" transform="matrix(1, 0, 0, 1, -72.66490173339844, -468.284912109375)"/><path fill="#448EB7" d="M334.3,710.3c-1.2-3.2-4-5.4-7.3-5.5c0,0.1,2.6-0.8,2.9-1c1.1-0.6,2.1-1.5,2.8-2.5&#10;&#9;&#9;&#9;c1.4-1.9,1.9-4.4,1.6-6.7c-0.5-4.5-4.4-8.1-8.7-7.9c0,0,0,0,0-0.1c4.6-1,7.3-5.9,6.1-10.7c-0.5-2.1-1.6-4-3.4-5.3&#10;&#9;&#9;&#9;c-1-0.7-2.1-1.2-3.3-1.4c-0.4-0.1-3.5,0.1-3.5,0.2c4.3-2.1,5.8-7.5,3.7-11.9c-2.2-4.3-7.1-6.3-11.3-3.8c0,0,1.8-2.2,2-2.5&#10;&#9;&#9;&#9;c0.6-1,0.9-2.2,1-3.4c0.2-2.4-0.6-4.8-2-6.7c-3-3.7-8.2-4.4-11.8-1.1c0,0,1.2-2.3,1.3-2.7c0.4-1.2,0.5-2.4,0.4-3.7&#10;&#9;&#9;&#9;c-0.3-2.4-1.5-4.5-3.3-6c-3.7-3-9-2.5-11.8,1.5c0,0,0.8-2.8,0.8-3.1c0.1-1.3-0.1-2.6-0.5-3.8c-0.8-2.1-2.4-3.8-4.3-4.8&#10;&#9;&#9;&#9;c-4.2-2.1-9.3-0.4-11.2,4.2c0,0,0.2-2.7,0.1-3c-0.1-1.2-0.5-2.4-1.1-3.5c-1.1-1.9-3-3.3-5-3.9c-4.6-1.3-9.5,1.4-10.4,6.5&#10;&#9;&#9;&#9;c0,0-0.4-2.8-0.5-3.2c-0.4-1.1-1-2.1-1.8-3c-1.6-1.7-3.9-2.7-6.2-2.6c-2.3,0.1-4.5,0.9-6.1,2.7c-0.8,0.8-1.4,1.9-1.8,3&#10;&#9;&#9;&#9;c-0.1,0.3-0.6,3.2-0.5,3.2c-0.9-4.9-5.5-7.6-10-6.6c-2.1,0.5-4,1.8-5.2,3.7c-0.7,1-1.1,2.2-1.3,3.4c-0.1,0.4,0.1,3.4,0.1,3.4&#10;&#9;&#9;&#9;c-1.9-4.6-6.9-6.2-11.1-4.1c-2.1,1-3.7,2.9-4.5,5.1c-0.4,1.1-0.5,2.2-0.4,3.3c0,0.4,0.8,3.4,0.8,3.3c-2.8-4-8-4.5-11.7-1.5&#10;&#9;&#9;&#9;c-1.8,1.4-3,3.6-3.3,6c-0.1,1.1-0.1,2.3,0.3,3.3c0.1,0.4,1.4,3.1,1.5,3.1c-3.6-3.3-8.8-2.5-11.8,1.2c-3,3.7-2.6,9.4,1.1,12.4&#10;&#9;&#9;&#9;c0,0-2.4-0.9-2.7-0.9c-1.2-0.2-2.4-0.1-3.6,0.3c-2.2,0.8-3.9,2.4-5,4.6c-2.2,4.3-0.5,9.8,3.7,11.8c0-0.1-3.1-0.2-3.5-0.2&#10;&#9;&#9;&#9;c-1.2,0.2-2.3,0.7-3.3,1.4c-1.7,1.3-2.8,3.2-3.3,5.3c-0.6,2.5-0.2,5.2,1.2,7.2c0.6,0.9,1.4,1.7,2.3,2.3c0.3,0.2,2.7,1.2,2.7,1.2&#10;&#9;&#9;&#9;c-4.1-0.2-7.8,2.9-8.6,7.2c-1,5.1,2.2,10.3,7.3,10.8c0-0.1-2.7,0.7-3,0.8c-1,0.5-2,1.2-2.7,2.1c-1.5,1.8-2.2,4.2-2.1,6.5&#10;&#9;&#9;&#9;c0.1,2.3,0.9,4.4,2.5,6.1c0.8,0.8,1.8,1.5,2.8,1.9c0.3,0.1,3.5,0.7,3.5,0.5c-4.7,1.1-7.2,6-6.1,10.8c0.5,2.2,1.9,4.2,3.8,5.4&#10;&#9;&#9;&#9;c1.1,0.7,2.2,1.1,3.4,1.2c0.3,0,3.4-0.4,3.4-0.5c-4.5,2.3-5.5,8-2.9,12.3c1.1,1.9,3.1,3.4,5.2,3.9c1.2,0.2,2.3,0.2,3.5-0.1&#10;&#9;&#9;&#9;c0.3-0.1,3.3-1.6,3.2-1.8c-3.5,3.7-2.7,9.6,1.2,12.6c3.9,3,9.2,2.2,11.8-2.2c-0.1,0-0.7,2.7-0.7,3c-0.1,1.3,0.1,2.6,0.6,3.8&#10;&#9;&#9;&#9;c0.9,2.2,2.7,3.9,4.8,4.7c4.4,1.8,9.4-0.4,10.9-5.1c0,0,0,2.7,0,3c0.2,1.2,0.7,2.4,1.3,3.5c1.2,1.8,3.1,3,5.2,3.5&#10;&#9;&#9;&#9;c4.6,1.1,9.3-1.9,10.2-6.9c0,0,0.4,2.6,0.5,3c0.4,1.2,1,2.3,1.8,3.2c1.5,1.7,3.7,2.7,5.9,2.8c4.5,0.3,8.7-3.2,9-8&#10;&#9;&#9;&#9;c0,0,0.6,2.4,0.7,2.7c0.5,1.1,1.1,2,1.9,2.8c1.8,1.7,4.1,2.5,6.5,2.3c2.1-0.2,4.2-1,5.6-2.7c0.8-0.9,1.4-1.9,1.8-3.1&#10;&#9;&#9;&#9;c0.1-0.4,0.6-3.4,0.6-3.4c0.9,4.7,5.4,7.7,9.9,6.8c2.1-0.4,4-1.6,5.3-3.4c0.7-1,1.2-2.2,1.5-3.4c0.1-0.4,0.2-3.5,0.1-3.4&#10;&#9;&#9;&#9;c1.6,4.7,6.6,6.8,10.9,5c2-0.8,3.7-2.4,4.7-4.4c0.5-1.1,0.8-2.4,0.8-3.7c0-0.4-0.6-3.4-0.7-3.4c2.5,4.4,7.9,5.2,11.8,2.2&#10;&#9;&#9;&#9;c3.9-3,4.8-8.8,1.4-12.6c-0.1,0.1,2.3,1.5,2.6,1.6c1.2,0.5,2.4,0.6,3.6,0.4c2.3-0.3,4.4-1.9,5.7-3.9c2.7-4.3,1.6-10-2.8-12.4&#10;&#9;&#9;&#9;c0,0.1,2.6,0.5,2.9,0.5c1.3,0,2.5-0.3,3.6-1c2-1.2,3.6-3.2,4.1-5.6c1.1-4.8-1.4-9.8-6.1-10.8c0,0.2,3.4-0.5,3.8-0.7&#10;&#9;&#9;&#9;c1.4-0.6,2.5-1.6,3.4-2.9C335,716.6,335.4,713.2,334.3,710.3C333.9,709.2,334.8,711.5,334.3,710.3z" transform="matrix(1, 0, 0, 1, -72.66490173339844, -468.284912109375)"/><path fill="#68B9DD" d="M320.6,693.9c-1-2.7-3.4-4.5-6.1-4.6c0,0,2.2-0.7,2.5-0.8c0.9-0.5,1.8-1.2,2.4-2.1&#10;&#9;&#9;&#9;c1.1-1.6,1.6-3.6,1.3-5.6c-0.5-3.8-3.7-6.8-7.3-6.6c0,0,0,0,0-0.1c3.9-0.8,6.1-5,5.1-8.9c-0.4-1.8-1.4-3.4-2.8-4.4&#10;&#9;&#9;&#9;c-0.8-0.6-1.8-1-2.8-1.2c-0.3,0-3,0.1-2.9,0.2c3.6-1.7,4.9-6.3,3.1-9.9c-1.8-3.6-5.9-5.3-9.4-3.2c0,0,1.5-1.8,1.7-2.1&#10;&#9;&#9;&#9;c0.5-0.9,0.8-1.8,0.9-2.8c0.2-2-0.5-4.1-1.7-5.6c-2.5-3.1-6.9-3.7-9.9-0.9c0,0,1-2,1.1-2.2c0.3-1,0.4-2,0.3-3.1&#10;&#9;&#9;&#9;c-0.2-2-1.3-3.8-2.8-5c-3.1-2.5-7.5-2.1-9.9,1.3c0,0,0.6-2.3,0.7-2.6c0.1-1.1-0.1-2.2-0.4-3.2c-0.7-1.8-2-3.2-3.6-4&#10;&#9;&#9;&#9;c-3.5-1.8-7.8-0.3-9.4,3.5c0,0,0.2-2.2,0.1-2.5c-0.1-1-0.4-2-0.9-2.9c-0.9-1.6-2.5-2.8-4.2-3.3c-3.9-1.1-8,1.2-8.8,5.5&#10;&#9;&#9;&#9;c0,0-0.4-2.4-0.5-2.7c-0.3-0.9-0.8-1.8-1.5-2.5c-1.3-1.4-3.2-2.2-5.2-2.2c-1.9,0-3.8,0.8-5.1,2.2c-0.7,0.7-1.2,1.6-1.5,2.5&#10;&#9;&#9;&#9;c-0.1,0.3-0.5,2.7-0.4,2.7c-0.8-4.1-4.6-6.4-8.4-5.5c-1.8,0.4-3.4,1.5-4.4,3.1c-0.6,0.9-0.9,1.8-1.1,2.9c0,0.3,0.1,2.9,0.1,2.9&#10;&#9;&#9;&#9;c-1.6-3.8-5.8-5.2-9.3-3.5c-1.7,0.8-3.1,2.4-3.7,4.3c-0.3,0.9-0.4,1.8-0.4,2.8c0,0.3,0.6,2.8,0.7,2.8c-2.4-3.4-6.7-3.7-9.8-1.3&#10;&#9;&#9;&#9;c-1.5,1.2-2.5,3-2.8,5c-0.1,0.9,0,1.9,0.2,2.8c0.1,0.3,1.2,2.6,1.2,2.6c-3-2.8-7.3-2.1-9.9,1c-2.5,3.1-2.2,7.9,0.9,10.4&#10;&#9;&#9;&#9;c0,0-2-0.7-2.3-0.8c-1-0.2-2-0.1-3,0.2c-1.9,0.6-3.3,2-4.2,3.8c-1.8,3.6-0.4,8.2,3.1,9.9c0-0.1-2.6-0.2-2.9-0.1&#10;&#9;&#9;&#9;c-1,0.2-2,0.6-2.8,1.2c-1.4,1.1-2.4,2.7-2.8,4.5c-0.5,2.1-0.2,4.3,1,6.1c0.5,0.8,1.2,1.4,1.9,1.9c0.2,0.2,2.2,1,2.2,1&#10;&#9;&#9;&#9;c-3.5-0.2-6.5,2.5-7.2,6c-0.8,4.3,1.9,8.6,6.1,9.1c0,0-2.2,0.6-2.5,0.7c-0.9,0.4-1.7,1-2.3,1.8c-1.3,1.5-1.9,3.5-1.8,5.5&#10;&#9;&#9;&#9;c0.1,1.9,0.8,3.7,2.1,5.1c0.7,0.7,1.5,1.2,2.4,1.6c0.3,0.1,2.9,0.6,2.9,0.5c-4,0.9-6,5-5.1,9c0.4,1.9,1.6,3.5,3.1,4.5&#10;&#9;&#9;&#9;c0.9,0.6,1.9,0.9,2.9,1c0.3,0,2.9-0.3,2.8-0.4c-3.8,2-4.6,6.7-2.5,10.3c1,1.6,2.6,2.9,4.4,3.2c1,0.2,2,0.2,2.9-0.1&#10;&#9;&#9;&#9;c0.3-0.1,2.8-1.3,2.7-1.5c-2.9,3.1-2.3,8,1,10.6c3.2,2.5,7.7,1.9,9.9-1.8c-0.1,0-0.6,2.3-0.6,2.5c-0.1,1.1,0.1,2.2,0.5,3.2&#10;&#9;&#9;&#9;c0.8,1.8,2.2,3.3,4,3.9c3.7,1.5,7.8-0.3,9.1-4.3c0,0,0,2.3,0,2.5c0.2,1,0.6,2,1.1,2.9c1,1.5,2.6,2.5,4.3,3c3.9,1,7.8-1.6,8.6-5.7&#10;&#9;&#9;&#9;c0,0,0.3,2.2,0.4,2.5c0.3,1,0.8,1.9,1.5,2.7c1.3,1.4,3.1,2.2,4.9,2.3c3.8,0.3,7.3-2.7,7.5-6.7c0,0,0.5,2,0.6,2.3&#10;&#9;&#9;&#9;c0.4,0.9,0.9,1.7,1.6,2.4c1.5,1.4,3.5,2.1,5.4,1.9c1.8-0.1,3.5-0.9,4.7-2.2c0.7-0.7,1.2-1.6,1.5-2.6c0.1-0.3,0.5-2.8,0.5-2.8&#10;&#9;&#9;&#9;c0.8,3.9,4.5,6.5,8.3,5.7c1.7-0.4,3.4-1.3,4.5-2.8c0.6-0.8,1-1.8,1.2-2.8c0.1-0.3,0.1-2.9,0.1-2.9c1.3,4,5.5,5.7,9.1,4.2&#10;&#9;&#9;&#9;c1.7-0.6,3.1-2,3.9-3.7c0.4-1,0.7-2,0.6-3.1c0-0.3-0.5-2.9-0.6-2.8c2.1,3.7,6.6,4.4,9.9,1.9c3.3-2.5,4-7.3,1.1-10.5&#10;&#9;&#9;&#9;c-0.1,0.1,1.9,1.3,2.2,1.4c1,0.4,2,0.5,3,0.3c1.9-0.3,3.7-1.6,4.7-3.2c2.3-3.6,1.4-8.4-2.4-10.4c0,0.1,2.2,0.5,2.4,0.5&#10;&#9;&#9;&#9;c1,0,2.1-0.3,3-0.8c1.7-1,3-2.7,3.4-4.7c1-4-1.1-8.2-5.1-9.1c0,0.2,2.9-0.4,3.2-0.6c1.2-0.5,2.1-1.4,2.9-2.4&#10;&#9;&#9;&#9;C321.2,699.2,321.5,696.3,320.6,693.9C320.3,693,321,694.9,320.6,693.9z" transform="matrix(1, 0, 0, 1, -72.66490173339844, -468.284912109375)"/><path fill="#8FD6EE" d="M307,677.6c-0.8-2.2-2.7-3.6-4.9-3.7c0,0,1.8-0.5,2-0.7c0.8-0.4,1.4-1,1.9-1.7c0.9-1.3,1.3-2.9,1.1-4.5&#10;&#9;&#9;&#9;c-0.4-3.1-2.9-5.5-5.9-5.3c0,0,0,0,0,0c3.1-0.7,4.9-4,4.1-7.2c-0.3-1.4-1.1-2.7-2.3-3.6c-0.7-0.5-1.4-0.8-2.2-0.9&#10;&#9;&#9;&#9;c-0.3,0-2.4,0.1-2.4,0.1c2.9-1.4,3.9-5.1,2.5-8c-1.5-2.9-4.8-4.2-7.6-2.6c0,0,1.2-1.5,1.3-1.7c0.4-0.7,0.6-1.5,0.7-2.3&#10;&#9;&#9;&#9;c0.2-1.6-0.4-3.3-1.4-4.5c-2-2.5-5.6-3-8-0.7c0,0,0.8-1.6,0.9-1.8c0.3-0.8,0.3-1.6,0.3-2.5c-0.2-1.6-1-3.1-2.2-4&#10;&#9;&#9;&#9;c-2.5-2-6.1-1.7-8,1c0,0,0.5-1.9,0.5-2.1c0.1-0.9,0-1.7-0.3-2.6c-0.5-1.4-1.6-2.6-2.9-3.2c-2.8-1.4-6.3-0.3-7.6,2.8&#10;&#9;&#9;&#9;c0,0,0.1-1.8,0.1-2c-0.1-0.8-0.3-1.6-0.8-2.4c-0.7-1.3-2-2.2-3.4-2.6c-3.1-0.9-6.4,1-7.1,4.4c0,0-0.3-1.9-0.4-2.1&#10;&#9;&#9;&#9;c-0.3-0.8-0.7-1.4-1.2-2c-1.1-1.2-2.6-1.8-4.2-1.8c-1.6,0-3,0.6-4.1,1.8c-0.5,0.6-0.9,1.3-1.2,2c-0.1,0.2-0.4,2.1-0.4,2.1&#10;&#9;&#9;&#9;c-0.6-3.3-3.7-5.1-6.8-4.5c-1.4,0.3-2.7,1.2-3.5,2.5c-0.4,0.7-0.8,1.5-0.9,2.3c0,0.3,0,2.3,0.1,2.3c-1.3-3.1-4.7-4.2-7.5-2.8&#10;&#9;&#9;&#9;c-1.4,0.7-2.5,1.9-3,3.4c-0.2,0.7-0.3,1.5-0.3,2.2c0,0.3,0.5,2.3,0.6,2.2c-1.9-2.7-5.4-3-7.9-1c-1.2,1-2.1,2.5-2.2,4&#10;&#9;&#9;&#9;c-0.1,0.8,0,1.5,0.2,2.3c0.1,0.2,1,2.1,1,2.1c-2.4-2.2-5.9-1.7-8,0.8c-2,2.5-1.8,6.4,0.7,8.4c0,0-1.6-0.6-1.8-0.6&#10;&#9;&#9;&#9;c-0.8-0.1-1.6-0.1-2.4,0.2c-1.5,0.5-2.6,1.6-3.4,3.1c-1.5,2.9-0.3,6.6,2.5,8c0-0.1-2.1-0.2-2.4-0.1c-0.8,0.1-1.6,0.5-2.2,1&#10;&#9;&#9;&#9;c-1.2,0.9-1.9,2.2-2.3,3.6c-0.4,1.7-0.1,3.5,0.8,4.9c0.4,0.6,0.9,1.1,1.6,1.5c0.2,0.1,1.8,0.8,1.8,0.8c-2.8-0.1-5.3,2-5.8,4.8&#10;&#9;&#9;&#9;c-0.7,3.5,1.5,7,4.9,7.3c0,0-1.8,0.5-2,0.6c-0.7,0.3-1.3,0.8-1.8,1.4c-1,1.2-1.5,2.8-1.4,4.4c0.1,1.5,0.6,3,1.7,4.1&#10;&#9;&#9;&#9;c0.5,0.6,1.2,1,1.9,1.3c0.2,0.1,2.3,0.5,2.3,0.4c-3.2,0.7-4.9,4-4.1,7.3c0.3,1.5,1.3,2.9,2.5,3.7c0.7,0.5,1.5,0.7,2.3,0.8&#10;&#9;&#9;&#9;c0.2,0,2.3-0.2,2.3-0.3c-3.1,1.6-3.7,5.4-2,8.3c0.8,1.3,2.1,2.3,3.5,2.6c0.8,0.2,1.6,0.2,2.4-0.1c0.2-0.1,2.2-1.1,2.1-1.2&#10;&#9;&#9;&#9;c-2.3,2.5-1.8,6.5,0.8,8.5c2.6,2,6.2,1.5,8-1.5c0,0-0.5,1.8-0.5,2c-0.1,0.9,0.1,1.8,0.4,2.6c0.6,1.5,1.8,2.6,3.2,3.2&#10;&#9;&#9;&#9;c3,1.2,6.3-0.2,7.4-3.5c0,0,0,1.8,0,2c0.1,0.8,0.5,1.6,0.9,2.3c0.8,1.2,2.1,2.1,3.5,2.4c3.1,0.8,6.3-1.3,6.9-4.6&#10;&#9;&#9;&#9;c0,0,0.3,1.8,0.3,2c0.3,0.8,0.7,1.5,1.2,2.2c1,1.2,2.5,1.8,4,1.9c3.1,0.2,5.9-2.2,6.1-5.4c0,0,0.4,1.6,0.5,1.8&#10;&#9;&#9;&#9;c0.3,0.7,0.8,1.4,1.3,1.9c1.2,1.1,2.8,1.7,4.4,1.6c1.4-0.1,2.8-0.7,3.8-1.8c0.5-0.6,1-1.3,1.2-2.1c0.1-0.2,0.4-2.3,0.4-2.3&#10;&#9;&#9;&#9;c0.6,3.2,3.7,5.2,6.7,4.6c1.4-0.3,2.7-1.1,3.6-2.3c0.5-0.7,0.8-1.5,1-2.3c0.1-0.3,0.1-2.3,0.1-2.3c1.1,3.2,4.4,4.6,7.4,3.4&#10;&#9;&#9;&#9;c1.4-0.5,2.5-1.6,3.1-3c0.4-0.8,0.5-1.6,0.5-2.5c0-0.2-0.4-2.3-0.5-2.3c1.7,3,5.3,3.5,7.9,1.5c2.6-2,3.2-5.9,0.9-8.5&#10;&#9;&#9;&#9;c0,0.1,1.6,1,1.7,1.1c0.8,0.3,1.6,0.4,2.4,0.3c1.6-0.2,2.9-1.3,3.8-2.6c1.8-2.9,1.1-6.8-1.9-8.4c0,0.1,1.8,0.4,2,0.4&#10;&#9;&#9;&#9;c0.8,0,1.7-0.2,2.4-0.6c1.4-0.8,2.4-2.2,2.8-3.8c0.8-3.3-0.9-6.6-4.1-7.3c0,0.1,2.3-0.4,2.6-0.5c0.9-0.4,1.7-1.1,2.3-2&#10;&#9;&#9;&#9;C307.4,681.8,307.7,679.5,307,677.6C306.7,676.8,307.2,678.3,307,677.6z" transform="matrix(1, 0, 0, 1, -72.66490173339844, -468.284912109375)"/><path fill="#448EB7" d="M244.8,665.2c-10.3,12.7-29.5,18.3-45.6,13.3c10.1,2.4,21.2,0.7,29.9-4.7c-8.5,3.4-18.2,3.8-27.2,1.7&#10;&#9;&#9;&#9;c-9-2.1-17.2-6.5-24.4-12c6.3,3.1,12.5,6.2,18.8,9.4c-3.2-1.9-6.3-3.9-9.3-6.1c-5.8-4.3-11.1-9.3-14.8-15.3&#10;&#9;&#9;&#9;c-3.7-6-5.6-13.2-4.3-20c1.7-9,8.3-16.3,14.7-23.1c2.1-2.3,4.3-4.6,7-6.3c3-1.9,6.5-3,9.9-4c5.2-1.6,10.4-3.1,15.9-3.2&#10;&#9;&#9;&#9;c6.6-0.1,13,2,19.2,4.1c-4.1-3-8.6-5.5-13.4-7.5c3.8-0.6,7.6,0.4,11.1,1.9c7,3.2,12.5,9.1,16,15.6s5.3,13.9,6.2,21.3&#10;&#9;&#9;&#9;c0.6,4.6,0.8,9.2-0.4,13.7c-0.9,3.5-2.6,6.8-4.6,9.9c-3.3,5.4-7.3,10.5-11.8,15.1L244.8,665.2z" transform="matrix(1, 0, 0, 1, -72.66490173339844, -468.284912109375)"/><path fill="#448EB7" d="M257.3,665.2c10.3,12.7,29.5,18.3,45.6,13.3c-10.1,2.4-21.2,0.7-29.9-4.7c8.5,3.4,18.2,3.8,27.2,1.7&#10;&#9;&#9;&#9;c9-2.1,17.2-6.5,24.4-12c-6.3,3.1-12.5,6.2-18.8,9.4c3.2-1.9,6.3-3.9,9.3-6.1c5.8-4.3,11.1-9.3,14.8-15.3c3.7-6,5.6-13.2,4.3-20&#10;&#9;&#9;&#9;c-1.7-9-8.3-16.3-14.7-23.1c-2.1-2.3-4.3-4.6-7-6.3c-3-1.9-6.5-3-9.9-4c-5.2-1.6-10.4-3.1-15.9-3.2c-6.6-0.1-13,2-19.2,4.1&#10;&#9;&#9;&#9;c4.1-3,8.6-5.5,13.4-7.5c-3.8-0.6-7.6,0.4-11.1,1.9c-7,3.2-12.5,9.1-16,15.6s-5.3,13.9-6.2,21.3c-0.6,4.6-0.8,9.2,0.4,13.7&#10;&#9;&#9;&#9;c0.9,3.5,2.6,6.8,4.6,9.9c3.3,5.4,7.3,10.5,11.8,15.1L257.3,665.2z" transform="matrix(1, 0, 0, 1, -72.66490173339844, -468.284912109375)"/><g transform="matrix(1, 0, 0, 1, -72.66490173339844, -468.284912109375)">
			<g>
				<g>
					<path d="M 324.099995 633.200012 A 36.700001 36.700001 0 0 1 287.399994 669.900013 A 36.700001 36.700001 0 0 1 250.699993 633.200012 A 36.700001 36.700001 0 0 1 287.399994 596.500011 A 36.700001 36.700001 0 0 1 324.099995 633.200012 Z" fill="#59421B"/>
					<path d="M 319.299999 634.400024 A 33.299999 33.299999 0 0 1 286 667.700024 A 33.299999 33.299999 0 0 1 252.700001 634.400024 A 33.299999 33.299999 0 0 1 286 601.100025 A 33.299999 33.299999 0 0 1 319.299999 634.400024 Z" fill="#D5BB80"/>
					<path d="M 319.299999 634.400024 A 33.299999 33.299999 0 0 1 286 667.700024 A 33.299999 33.299999 0 0 1 252.700001 634.400024 A 33.299999 33.299999 0 0 1 286 601.100025 A 33.299999 33.299999 0 0 1 319.299999 634.400024 Z" fill="#D5BB80"/>
					<path d="M 316.1 634.400024 A 30.1 30.1 0 0 1 286 664.500025 A 30.1 30.1 0 0 1 255.9 634.400024 A 30.1 30.1 0 0 1 286 604.300024 A 30.1 30.1 0 0 1 316.1 634.400024 Z" fill="#F5EAAC"/>
					<path d="M 289.600012 638.200012 A 14.4 14.4 0 0 1 275.200012 652.600012 A 14.4 14.4 0 0 1 260.800013 638.200012 A 14.4 14.4 0 0 1 275.200012 623.800013 A 14.4 14.4 0 0 1 289.600012 638.200012 Z" fill="#D7C49B"/>
					<path d="M 285.600012 638.200012 A 10.4 10.4 0 0 1 275.200012 648.600012 A 10.4 10.4 0 0 1 264.800013 638.200012 A 10.4 10.4 0 0 1 275.200012 627.800013 A 10.4 10.4 0 0 1 285.600012 638.200012 Z" fill="#33262D"/>
					<path d="M 275.300012 635.200012 A 3.1 3.1 0 0 1 272.200012 638.300012 A 3.1 3.1 0 0 1 269.100012 635.200012 A 3.1 3.1 0 0 1 272.200012 632.100012 A 3.1 3.1 0 0 1 275.300012 635.200012 Z" fill="#FFFFFF"/>
					
						<path d="M 280.700012 619.900024 A 11 6.2 0 0 1 269.700012 626.100024 A 11 6.2 0 0 1 258.700012 619.900024 A 11 6.2 0 0 1 269.700012 613.700025 A 11 6.2 0 0 1 280.700012 619.900024 Z" transform="matrix(0.6916 -0.7223 0.7223 0.6916 -364.6116 386.0141)" fill="#FFFFFF"/>
				</g>
				<path fill="#D7C49B" d="M292.7,659c-15.9,0-29.5-9.5-35.6-23c0.4,10.9,7,21,17.7,25.4c9.5,3.8,19.9,2.2,27.6-3.5&#10;&#9;&#9;&#9;&#9;&#9;C299.2,658.6,296,659,292.7,659z"/>
			</g>
			<g>
				<g>
					<path d="M 247.599995 633.200012 A 36.700001 36.700001 0 0 1 210.899994 669.900013 A 36.700001 36.700001 0 0 1 174.199993 633.200012 A 36.700001 36.700001 0 0 1 210.899994 596.500011 A 36.700001 36.700001 0 0 1 247.599995 633.200012 Z" fill="#59421B"/>
					<path d="M 245.699993 634.400024 A 33.299999 33.299999 0 0 1 212.399994 667.700024 A 33.299999 33.299999 0 0 1 179.099995 634.400024 A 33.299999 33.299999 0 0 1 212.399994 601.100025 A 33.299999 33.299999 0 0 1 245.699993 634.400024 Z" fill="#D5BB80"/>
					<path d="M 245.699993 634.400024 A 33.299999 33.299999 0 0 1 212.399994 667.700024 A 33.299999 33.299999 0 0 1 179.099995 634.400024 A 33.299999 33.299999 0 0 1 212.399994 601.100025 A 33.299999 33.299999 0 0 1 245.699993 634.400024 Z" fill="#D5BB80"/>
					<path d="M 242.499994 634.400024 A 30.1 30.1 0 0 1 212.399994 664.500025 A 30.1 30.1 0 0 1 182.299994 634.400024 A 30.1 30.1 0 0 1 212.399994 604.300024 A 30.1 30.1 0 0 1 242.499994 634.400024 Z" fill="#F5EAAC"/>
					<path d="M 237.200003 634.400024 A 14.4 14.4 0 0 1 222.800003 648.800024 A 14.4 14.4 0 0 1 208.400003 634.400024 A 14.4 14.4 0 0 1 222.800003 620.000025 A 14.4 14.4 0 0 1 237.200003 634.400024 Z" fill="#D7C49B"/>
					<path d="M 233.200003 634.400024 A 10.4 10.4 0 0 1 222.800003 644.800024 A 10.4 10.4 0 0 1 212.400003 634.400024 A 10.4 10.4 0 0 1 222.800003 624.000025 A 10.4 10.4 0 0 1 233.200003 634.400024 Z" fill="#33262D"/>
					<path d="M 228.999994 631.299988 A 3.1 3.1 0 0 1 225.899994 634.399988 A 3.1 3.1 0 0 1 222.799994 631.299988 A 3.1 3.1 0 0 1 225.899994 628.199988 A 3.1 3.1 0 0 1 228.999994 631.299988 Z" fill="#FFFFFF"/>
					
						<path d="M 207 619.900024 A 11 6.2 0 0 1 196 626.100024 A 11 6.2 0 0 1 185 619.900024 A 11 6.2 0 0 1 196 613.700025 A 11 6.2 0 0 1 207 619.900024 Z" transform="matrix(0.6916 -0.7223 0.7223 0.6916 -387.3307 332.8088)" fill="#FFFFFF"/>
				</g>
				<path fill="#D7C49B" d="M205.7,659c15.9,0,29.5-9.5,35.6-23c-0.4,10.9-7,21-17.7,25.4c-9.5,3.8-19.9,2.2-27.6-3.5&#10;&#9;&#9;&#9;&#9;&#9;C199.1,658.6,202.4,659,205.7,659z"/>
			</g>
		</g><path fill="#331410" d="M255.1,637.9c-0.9-1-2-1.9-3.2-2.2c-1.2-0.3-2.6,0.1-3.4,1.2c-0.8-1.1-2.2-1.5-3.4-1.2&#10;&#9;&#9;&#9;&#9;c-1.3,0.3-2.3,1.2-3.2,2.2c-4.9,5.4-6.2,13.8-5.1,21.4c1.1,7.6,4.4,14.5,7.5,21.3c0.2,0.5,2.2,3.6,4.2,3.6c2,0,3.9-3.1,4.1-3.6&#10;&#9;&#9;&#9;&#9;c3.2-6.8,6.5-13.7,7.6-21.3C261.4,651.7,260,643.2,255.1,637.9z" transform="matrix(1, 0, 0, 1, -72.66490173339844, -468.284912109375)"/><path fill="#ED9854" d="M244.8,637c-0.9,0.2-1.6,1-2.2,1.7c-3.9,5.5-5.2,12.7-4.7,19.5c0.5,7.6,3.1,15,7.4,21.2&#10;&#9;&#9;&#9;&#9;c0.7,1.1,1.8,2.2,3.1,2c1.4-0.3,1.8-2.2,2-3.7c1.1-12.4,1.9-25.3-1.9-37.1c-0.3-0.9-0.6-1.8-1.2-2.5&#10;&#9;&#9;&#9;&#9;C246.6,637.3,245.7,636.8,244.8,637z" transform="matrix(1, 0, 0, 1, -72.66490173339844, -468.284912109375)"/><path fill="#EE7054" d="M251.1,637c-1.2,0.3-1.8,1.7-2.2,2.9c-3.8,12.6-4.4,26.2-1.6,39c0.2,0.9,0.5,2,1.4,2.3&#10;&#9;&#9;&#9;&#9;c1.1,0.4,2.1-0.7,2.7-1.7c5.7-8.9,8.2-19.8,7.2-30.4c-0.4-4.2-1.6-8.6-4.8-11.2C253,637.3,252.1,636.7,251.1,637z" transform="matrix(1, 0, 0, 1, -72.66490173339844, -468.284912109375)"/><path d="M 251.399997 661 A 3.2 18.5 0 0 1 248.199997 679.5 A 3.2 18.5 0 0 1 244.999997 661 A 3.2 18.5 0 0 1 248.199997 642.5 A 3.2 18.5 0 0 1 251.399997 661 Z" fill="#F7DC5C" transform="matrix(1, 0, 0, 1, -72.66490173339844, -468.284912109375)"/><path fill="#FFFFFF" d="M248.6,654.8c0.7-0.2,1-1.1,1.1-1.8c0.3-2.3-0.1-4.8-1.1-6.9c-1.7,1.7-2.4,4.3-2,6.7&#10;&#9;&#9;&#9;&#9;c0.1,0.5,0.2,1.1,0.6,1.5C247.5,654.7,248.1,655,248.6,654.8z" transform="matrix(1, 0, 0, 1, -72.66490173339844, -468.284912109375)"/><path fill="#FFFFFF" d="M249.2,660.7c-0.4-1.4-0.7-2.8-1.1-4.3c-0.8,1.4-1.2,3.1-1,4.8c0,0.5,0.1,0.9,0.4,1.3&#10;&#9;&#9;&#9;&#9;c0.3,0.4,0.7,0.6,1.2,0.5c0.4-0.1,0.7-0.6,0.8-1C249.5,661.6,249.3,661.2,249.2,660.7z" transform="matrix(1, 0, 0, 1, -72.66490173339844, -468.284912109375)"/><path fill="#286C97" d="M153.6,669.5c-16.3,23.5-24.5,52.6-22.9,81.2c2.3-4.6,4.6-9.1,7-13.7c-0.6,1.8-1.2,3.7-1.2,5.7&#10;&#9;&#9;&#9;c0.1,1.9,1,4,2.8,4.8c1.8,0.8,4,0.2,5.5-1c1.5-1.3,2.5-3.1,3.4-4.8c3.8-7.6,6.6-15.7,8.3-24c0.9,3.2-0.4,6.6-0.6,9.9&#10;&#9;&#9;&#9;s1.7,7.5,5,7.3c3.1-0.1,4.7-3.6,5.5-6.6c6.5-22.7,9.1-46.4,7.7-70c-0.1-1.6-0.3-3.4-1.6-4.3c-1.2-0.9-3-0.5-4.2,0.4&#10;&#9;&#9;&#9;c-1.2,0.9-1.9,2.3-2.6,3.7L153.6,669.5z" transform="matrix(1, 0, 0, 1, -72.66490173339844, -468.284912109375)"/><path fill="#2D2B2A" d="M130.7,751.7c-0.1,0-0.1,0-0.2,0c-0.5-0.1-0.8-0.5-0.8-1c-1.6-28.9,6.5-58,23.1-81.8&#10;&#9;&#9;&#9;c0.3-0.5,1-0.6,1.5-0.3c0.5,0.3,0.6,1,0.3,1.5c-15.5,22.3-23.5,49.3-22.9,76.5l5.1-10.1c0.3-0.5,0.8-0.7,1.4-0.5&#10;&#9;&#9;&#9;c0.5,0.2,0.8,0.8,0.6,1.3c-0.6,1.7-1.2,3.5-1.1,5.3c0.1,1.3,0.6,3.2,2.2,3.9c1.5,0.7,3.3,0,4.4-0.9c1.4-1.1,2.3-2.8,3.1-4.5&#10;&#9;&#9;&#9;c3.8-7.5,6.5-15.5,8.2-23.8c0.1-0.5,0.5-0.8,1-0.8c0.5,0,0.9,0.3,1.1,0.8c0.7,2.4,0.2,4.7-0.1,7c-0.2,1.1-0.4,2.2-0.4,3.2&#10;&#9;&#9;&#9;c-0.1,2,0.6,4.1,1.7,5.3c0.6,0.7,1.4,1,2.2,0.9c2.4-0.1,3.8-3.2,4.5-5.8c6.5-22.7,9-46.1,7.6-69.6c-0.1-1.4-0.3-2.9-1.2-3.5&#10;&#9;&#9;&#9;c-0.8-0.6-2.1-0.2-2.9,0.4c-1,0.8-1.7,2.1-2.3,3.3c-0.3,0.5-0.9,0.7-1.4,0.5c-0.5-0.3-0.7-0.9-0.5-1.4c0.7-1.4,1.5-2.9,2.9-4&#10;&#9;&#9;&#9;c1.4-1.1,3.7-1.7,5.5-0.5c1.6,1.1,2,3.1,2.1,5.1c1.4,23.8-1.2,47.4-7.7,70.3c-1.4,4.8-3.5,7.2-6.5,7.4c-1.4,0-2.7-0.5-3.8-1.6&#10;&#9;&#9;&#9;c-1.4-1.4-2.3-3.8-2.3-6.1c-1.5,4.8-3.4,9.4-5.6,13.9c-0.9,1.8-2,3.8-3.7,5.2c-2,1.7-4.6,2.1-6.7,1.2c-1.7-0.8-3-2.7-3.3-4.8&#10;&#9;&#9;&#9;l-3.9,7.6C131.5,751.5,131.1,751.7,130.7,751.7z" transform="matrix(1, 0, 0, 1, -72.66490173339844, -468.284912109375)"/><path fill="#286C97" d="M345.3,668.8c15.9,23.7,23.9,53,22.3,81.9c-2.3-4.6-4.5-9.2-6.8-13.8c0.6,1.9,1.2,3.8,1.1,5.7&#10;&#9;&#9;&#9;c-0.1,2-1,4-2.7,4.8c-1.7,0.9-3.9,0.2-5.4-1.1c-1.5-1.3-2.4-3.1-3.3-4.9c-3.7-7.7-6.4-15.8-8.1-24.2c-0.9,3.2,0.4,6.6,0.6,10&#10;&#9;&#9;&#9;c0.2,3.4-1.6,7.5-4.9,7.4c-3-0.1-4.6-3.7-5.4-6.6c-6.3-22.9-8.9-46.8-7.5-70.6c0.1-1.6,0.3-3.4,1.6-4.3c1.2-0.9,3-0.5,4.1,0.4&#10;&#9;&#9;&#9;s1.9,2.3,2.6,3.7L345.3,668.8z" transform="matrix(1, 0, 0, 1, -72.66490173339844, -468.284912109375)"/><path fill="#2D2B2A" d="M367.6,751.7c-0.4,0-0.8-0.2-1-0.6l-3.7-7.6c-0.3,2.2-1.5,4-3.2,4.8c-2,1-4.6,0.5-6.6-1.2&#10;&#9;&#9;&#9;c-1.7-1.4-2.7-3.4-3.6-5.2c-2.2-4.5-4-9.1-5.5-13.8c-0.1,2.3-1,4.6-2.3,6.1c-1,1-2.3,1.6-3.6,1.5c-2.9-0.1-5-2.6-6.4-7.4&#10;&#9;&#9;&#9;c-6.4-23.1-8.9-47-7.5-70.9c0.1-2,0.4-4,2-5.1c1.5-1.1,3.7-0.9,5.4,0.5c1.4,1.1,2.1,2.7,2.8,4c0.3,0.5,0.1,1.2-0.5,1.4&#10;&#9;&#9;&#9;c-0.5,0.3-1.2,0-1.4-0.5c-0.6-1.2-1.3-2.5-2.3-3.3c-0.8-0.6-2-1-2.8-0.4c-0.9,0.6-1.1,2.1-1.1,3.5c-1.4,23.7,1.1,47.4,7.5,70.2&#10;&#9;&#9;&#9;c0.7,2.6,2.1,5.8,4.4,5.9c0.7,0,1.4-0.3,2-0.9c1.1-1.2,1.9-3.4,1.7-5.4c-0.1-1.1-0.2-2.1-0.4-3.3c-0.4-2.3-0.8-4.7-0.1-7.1&#10;&#9;&#9;&#9;c0.1-0.5,0.6-0.8,1.1-0.8c0.5,0,0.9,0.4,1,0.9c1.7,8.3,4.3,16.4,8,24c0.8,1.7,1.7,3.4,3,4.5c1.1,0.9,2.8,1.6,4.2,0.9&#10;&#9;&#9;&#9;c1.2-0.6,2-2.1,2.1-3.9c0.1-1.8-0.5-3.6-1.1-5.3c-0.2-0.5,0.1-1.1,0.6-1.3c0.5-0.2,1.1,0,1.4,0.5l4.9,10.1&#10;&#9;&#9;&#9;c0.6-27.3-7.2-54.5-22.3-77.1c-0.3-0.5-0.2-1.1,0.3-1.5c0.5-0.3,1.1-0.2,1.5,0.3c16.1,24,24.1,53.3,22.5,82.5c0,0.5-0.4,0.9-0.8,1&#10;&#9;&#9;&#9;C367.8,751.7,367.7,751.7,367.6,751.7z" transform="matrix(1, 0, 0, 1, -72.66490173339844, -468.284912109375)"/><g transform="matrix(1, 0, 0, 1, -72.66490173339844, -468.284912109375)">
			<g>
				<path fill="#EEAC77" d="M219.5,796.9c-1.8-1.3-4.4-0.4-6.3,0.9c-4.2,2.9-6.9,7.7-8.1,12.6s-1.3,10.1-1.1,15.2&#10;&#9;&#9;&#9;&#9;&#9;c0,0.8,0.2,1.7,0.9,2c0.9,0.4,1.9-0.6,2.4-1.5c2.8-4.7,5.6-9.3,8.4-14c1.5-2.5,3-5,4.2-7.6c0.6-1.3,1.1-2.6,1.2-4&#10;&#9;&#9;&#9;&#9;&#9;C221.1,799.2,220.6,797.7,219.5,796.9z"/>
				<path fill="#2D2B2A" d="M205.3,828.8L205.3,828.8c-0.3,0-0.6-0.1-0.9-0.2c-1.4-0.6-1.5-2.3-1.5-2.9c-0.2-4.8-0.3-10.3,1.1-15.6&#10;&#9;&#9;&#9;&#9;&#9;c1.5-5.7,4.5-10.4,8.6-13.2c0.9-0.6,2.7-1.7,4.8-1.7c1,0,1.9,0.3,2.7,0.8c1.3,0.9,2.1,2.7,2,4.6c-0.1,1.6-0.6,3.1-1.3,4.4&#10;&#9;&#9;&#9;&#9;&#9;c-1.2,2.7-2.8,5.2-4.3,7.7l-8.4,14C207.7,827.5,206.7,828.8,205.3,828.8z M217.3,797.3c-1,0-2.3,0.5-3.5,1.3&#10;&#9;&#9;&#9;&#9;&#9;c-3.6,2.5-6.4,6.8-7.7,12c-1.3,5-1.3,10.1-1,14.9c0,1,0.2,1.1,0.2,1.1l0,0c0.1,0,0.6-0.3,1-1.1l8.4-14c1.5-2.4,3-4.9,4.2-7.5&#10;&#9;&#9;&#9;&#9;&#9;c0.5-1.1,1-2.4,1.1-3.6c0-0.9-0.3-2.1-1.1-2.8C218.4,797.5,217.9,797.3,217.3,797.3z"/>
			</g>
			<path fill="#DD7F38" d="M216.2,805.8c0.2-1.2,0.4-2.4,0.2-3.6c-0.4,2.2-1.9,4.1-3.9,5.2c0.4,1.6,0.5,3.4-0.2,4.9&#10;&#9;&#9;&#9;&#9;c-0.6,1.5-2,2.8-3.6,3.1c0.2,2.8-0.3,5.8-1.6,8.3c2.4-4.2,4.8-8.4,7.2-12.6c0.4-0.8,0.9-1.6,1.2-2.4&#10;&#9;&#9;&#9;&#9;C215.8,807.7,216.1,806.7,216.2,805.8z"/>
			<g>
				<path fill="#EEAC77" d="M226.2,796.9c1.8-1.3,4.4-0.4,6.3,0.9c4.2,2.9,6.9,7.7,8.1,12.6s1.3,10.1,1.1,15.2c0,0.8-0.2,1.7-0.9,2&#10;&#9;&#9;&#9;&#9;&#9;c-0.9,0.4-1.9-0.6-2.4-1.5c-2.8-4.7-5.6-9.3-8.4-14c-1.5-2.5-3-5-4.2-7.6c-0.6-1.3-1.1-2.6-1.2-4&#10;&#9;&#9;&#9;&#9;&#9;C224.5,799.2,225,797.7,226.2,796.9z"/>
				<path fill="#2D2B2A" d="M240.3,828.8c-1.4,0-2.4-1.3-2.8-2.1l-8.4-14c-1.5-2.5-3-5-4.3-7.7c-0.6-1.3-1.2-2.8-1.3-4.4&#10;&#9;&#9;&#9;&#9;&#9;c-0.1-1.9,0.7-3.6,2-4.6c0.8-0.6,1.7-0.8,2.7-0.8c2,0,3.8,1.1,4.8,1.7c4,2.8,7.1,7.5,8.6,13.2c1.4,5.2,1.3,10.8,1.1,15.6&#10;&#9;&#9;&#9;&#9;&#9;c0,0.6-0.1,2.3-1.5,2.9C240.9,828.8,240.6,828.8,240.3,828.8z M240.3,826.7v1.1V826.7z M228.3,797.3c-0.6,0-1.1,0.1-1.5,0.4&#10;&#9;&#9;&#9;&#9;&#9;c-0.9,0.6-1.2,1.9-1.1,2.8c0,1.2,0.5,2.4,1.1,3.6c1.2,2.6,2.7,5.1,4.2,7.5l8.4,14c0.4,0.7,0.9,1.1,1,1.1c0,0,0.2-0.1,0.3-1.1&#10;&#9;&#9;&#9;&#9;&#9;c0.2-4.8,0.3-10-1-14.9c-1.4-5.2-4.1-9.5-7.7-12C230.6,797.8,229.3,797.3,228.3,797.3z"/>
			</g>
			<path fill="#DD7F38" d="M233.5,806.5c-0.2,1.9,0.1,3.8,0.9,5.4c0.3,0.6,0.6,1.2,1.1,1.6c0.5,0.4,1.2,0.7,1.8,0.6&#10;&#9;&#9;&#9;&#9;c-0.3,1.7,0.2,3.5,0.9,5.1c0.4,1.1,0.9,2.1,1.4,3.1c-0.3-0.2-0.6-0.5-0.8-0.7c-1.2-1.5-2.3-3.1-3.5-4.6c-0.5-0.7-1-1.4-1.6-2.1&#10;&#9;&#9;&#9;&#9;c-0.3-0.4-0.6-0.9-0.9-1.3c-2.1-3.1-3.7-6.6-4.4-10.3c-0.2-1.1-0.4-2.3,0.2-3.3C229.8,802.5,231.1,805.1,233.5,806.5z"/>
			<g>
				<path fill="#EEAC77" d="M229.3,808.1c0,7.6-3,21.7-6.6,21.7c-3.7,0-6.6-14.1-6.6-21.7s3-13.8,6.6-13.8&#10;&#9;&#9;&#9;&#9;&#9;C226.3,794.3,229.3,800.5,229.3,808.1z"/>
				<path fill="#2D2B2A" d="M222.6,830.8c-5.1,0-7.7-16-7.7-22.8c0-8.3,3.4-14.8,7.7-14.8s7.7,6.5,7.7,14.8&#10;&#9;&#9;&#9;&#9;&#9;C230.3,814.9,227.7,830.8,222.6,830.8z M222.6,795.4c-2.6,0-5.6,5.2-5.6,12.7c0,8.5,3.3,20.6,5.6,20.6s5.6-12.2,5.6-20.6&#10;&#9;&#9;&#9;&#9;&#9;C228.2,800.6,225.3,795.4,222.6,795.4z"/>
			</g>
		</g><path fill="#F5EAAC" d="M210.7,803.7c0,0.5,0.4,0.9,0.7,1.3c0.3,0.3,0.6,0.6,1.1,0.6c0.7,0,1.1-0.7,1.4-1.3&#10;&#9;&#9;&#9;c0.4-0.8,0.7-1.6,0.8-2.4c0.1-0.9-0.1-1.8-0.8-2.4c-0.9,0.8-1.7,1.7-2.5,2.6C211,802.6,210.6,803.1,210.7,803.7z" transform="matrix(1, 0, 0, 1, -72.66490173339844, -468.284912109375)"/><path fill="#F5EAAC" d="M209.5,806c-0.3,0.1-0.5,0.3-0.6,0.6c-1.3,2.3-1.8,5-1.6,7.6c0,0.3,0.1,0.6,0.4,0.7&#10;&#9;&#9;&#9;c0.3,0.1,0.6-0.2,0.8-0.5c0.7-1.2,1.3-2.4,2-3.6c0.4-0.7,0.7-1.4,0.7-2.1C211,807.9,210.2,805.9,209.5,806z" transform="matrix(1, 0, 0, 1, -72.66490173339844, -468.284912109375)"/><path fill="#F5EAAC" d="M206.4,822.6c0.5-1.2,0.8-2.5,0.9-3.9c0-0.5,0-0.9-0.2-1.4c-0.2-0.4-0.6-0.8-1.1-0.8&#10;&#9;&#9;&#9;c-0.4,1.2-0.6,2.5-0.7,3.8c0,0.8,0,1.7,0.6,2.3c0,0.1,0.1,0.1,0.2,0.1C206.3,822.8,206.4,822.7,206.4,822.6z" transform="matrix(1, 0, 0, 1, -72.66490173339844, -468.284912109375)"/><path fill="#F5EAAC" d="M218.8,808.1c0.2,0.6,0.5,1.2,1.1,1.3c0.6,0.2,1.2-0.2,1.5-0.7c0.3-0.5,0.4-1.1,0.5-1.7&#10;&#9;&#9;&#9;c0.4-3.1,0.5-6.3,0.2-9.4c0-0.3-0.2-0.8-0.5-0.8c-0.2,0-0.3,0.2-0.4,0.3c-1.6,1.9-2.2,4.4-2.5,6.9&#10;&#9;&#9;&#9;C218.4,805.4,218.4,806.8,218.8,808.1z" transform="matrix(1, 0, 0, 1, -72.66490173339844, -468.284912109375)"/><path fill="#F5EAAC" d="M220.2,810.7c-0.2,0.1-0.5,0.2-0.6,0.4c-0.1,0.1-0.1,0.3-0.2,0.4c-0.4,1.8-0.1,3.8,0.4,5.6&#10;&#9;&#9;&#9;c0.1,0.4,0.3,0.9,0.6,1.3c0.2,0.2,0.4,0.3,0.7,0.3c0.4-0.1,0.6-0.5,0.7-0.9c0.3-1.4,0.4-2.8,0.4-4.2c0-0.7-0.1-1.3-0.4-1.9&#10;&#9;&#9;&#9;C221.5,811,220.9,810.6,220.2,810.7z" transform="matrix(1, 0, 0, 1, -72.66490173339844, -468.284912109375)"/><path fill="#F5EAAC" d="M234.1,801.9c-0.9-1-1.8-1.9-3-2.5c-0.2-0.1-0.3-0.1-0.5-0.1c-0.1,0.7,0.1,1.5,0.5,2.1&#10;&#9;&#9;&#9;c0.4,0.6,0.9,1.2,1.4,1.7c0.4,0.5,0.9,0.9,1.3,1.4c0.4,0.4,0.8,0.8,1.4,0.7c0.3-0.5,0.3-1.3,0.1-1.8&#10;&#9;&#9;&#9;C235,802.9,234.6,802.4,234.1,801.9z" transform="matrix(1, 0, 0, 1, -72.66490173339844, -468.284912109375)"/><path fill="#F5EAAC" d="M237.6,809.9c0.3-1.1-0.3-2.2-1-3.2c-0.2-0.3-0.5-0.6-0.8-0.4c-0.5,1.1-0.5,2.4,0.1,3.5&#10;&#9;&#9;&#9;c0.1,0.3,0.3,0.5,0.5,0.7s0.5,0.2,0.8,0.1C237.4,810.5,237.5,810.2,237.6,809.9z" transform="matrix(1, 0, 0, 1, -72.66490173339844, -468.284912109375)"/><path fill="#DD7F38" d="M222.4,827.1c1.2,0,1.9-1.3,2.3-2.4c2.2-6.2,3-12.9,2.1-19.5c-0.4-3.2-1.4-6.6-4-8.5&#10;&#9;&#9;&#9;c0.7,6.9,1,13.8,0.8,20.7c0,1.3-0.1,2.5-0.1,3.8C223.4,823.2,223.3,825.3,222.4,827.1z" transform="matrix(1, 0, 0, 1, -72.66490173339844, -468.284912109375)"/><g transform="matrix(1, 0, 0, 1, -72.66490173339844, -468.284912109375)">
			<g>
				<path fill="#EEAC77" d="M272.2,796.9c-1.8-1.3-4.4-0.4-6.3,0.9c-4.2,2.9-6.9,7.7-8.1,12.6s-1.3,10.1-1.1,15.2&#10;&#9;&#9;&#9;&#9;&#9;c0,0.8,0.2,1.7,0.9,2c0.9,0.4,1.9-0.6,2.4-1.5c2.8-4.7,5.6-9.3,8.4-14c1.5-2.5,3-5,4.2-7.6c0.6-1.3,1.1-2.6,1.2-4&#10;&#9;&#9;&#9;&#9;&#9;C273.8,799.2,273.3,797.7,272.2,796.9z"/>
				<path fill="#2D2B2A" d="M258,828.8L258,828.8c-0.3,0-0.6-0.1-0.9-0.2c-1.4-0.6-1.5-2.3-1.5-2.9c-0.2-4.8-0.3-10.3,1.1-15.6&#10;&#9;&#9;&#9;&#9;&#9;c1.5-5.7,4.5-10.4,8.6-13.2c0.9-0.6,2.7-1.7,4.8-1.7c1,0,1.9,0.3,2.7,0.8c1.3,0.9,2.1,2.7,2,4.6c-0.1,1.6-0.6,3.1-1.3,4.4&#10;&#9;&#9;&#9;&#9;&#9;c-1.2,2.7-2.8,5.2-4.3,7.7l-8.4,14C260.4,827.5,259.4,828.8,258,828.8z M270.1,797.3c-1,0-2.3,0.5-3.5,1.3&#10;&#9;&#9;&#9;&#9;&#9;c-3.6,2.5-6.4,6.8-7.7,12c-1.3,5-1.3,10.1-1,14.9c0,1,0.2,1.1,0.2,1.1l0,0c0.1,0,0.6-0.3,1-1.1l8.4-14c1.5-2.4,3-4.9,4.2-7.5&#10;&#9;&#9;&#9;&#9;&#9;c0.5-1.1,1-2.4,1.1-3.6c0-0.9-0.3-2.1-1.1-2.8C271.1,797.5,270.7,797.3,270.1,797.3z"/>
			</g>
			<path fill="#DD7F38" d="M269,805.8c0.2-1.2,0.4-2.4,0.2-3.6c-0.4,2.2-1.9,4.1-3.9,5.2c0.4,1.6,0.5,3.4-0.2,4.9&#10;&#9;&#9;&#9;&#9;c-0.6,1.5-2,2.8-3.6,3.1c0.2,2.8-0.3,5.8-1.6,8.3c2.4-4.2,4.8-8.4,7.2-12.6c0.4-0.8,0.9-1.6,1.2-2.4&#10;&#9;&#9;&#9;&#9;C268.6,807.7,268.8,806.7,269,805.8z"/>
			<g>
				<path fill="#EEAC77" d="M278.9,796.9c1.8-1.3,4.4-0.4,6.3,0.9c4.2,2.9,6.9,7.7,8.1,12.6s1.3,10.1,1.1,15.2c0,0.8-0.2,1.7-0.9,2&#10;&#9;&#9;&#9;&#9;&#9;c-0.9,0.4-1.9-0.6-2.4-1.5c-2.8-4.7-5.6-9.3-8.4-14c-1.5-2.5-3-5-4.2-7.6c-0.6-1.3-1.1-2.6-1.2-4&#10;&#9;&#9;&#9;&#9;&#9;C277.3,799.2,277.8,797.7,278.9,796.9z"/>
				<path fill="#2D2B2A" d="M293,828.8c-1.4,0-2.4-1.3-2.8-2.1l-8.4-14c-1.5-2.5-3-5-4.3-7.7c-0.6-1.3-1.2-2.8-1.3-4.4&#10;&#9;&#9;&#9;&#9;&#9;c-0.1-1.9,0.7-3.6,2-4.6c0.8-0.6,1.7-0.8,2.7-0.8c2,0,3.8,1.1,4.8,1.7c4,2.8,7.1,7.5,8.6,13.2c1.4,5.2,1.3,10.8,1.1,15.6&#10;&#9;&#9;&#9;&#9;&#9;c0,0.6-0.1,2.3-1.5,2.9C293.6,828.8,293.3,828.8,293,828.8z M293,826.7v1.1V826.7z M281,797.3c-0.6,0-1.1,0.1-1.5,0.4&#10;&#9;&#9;&#9;&#9;&#9;c-0.9,0.6-1.2,1.9-1.1,2.8c0,1.2,0.5,2.4,1.1,3.6c1.2,2.6,2.7,5.1,4.2,7.5l8.4,14c0.4,0.7,0.9,1.1,1,1.1c0,0,0.2-0.1,0.3-1.1&#10;&#9;&#9;&#9;&#9;&#9;c0.2-4.8,0.3-10-1-14.9c-1.4-5.2-4.1-9.5-7.7-12C283.3,797.8,282.1,797.3,281,797.3z"/>
			</g>
			<path fill="#DD7F38" d="M286.2,806.5c-0.2,1.9,0.1,3.8,0.9,5.4c0.3,0.6,0.6,1.2,1.1,1.6c0.5,0.4,1.2,0.7,1.8,0.6&#10;&#9;&#9;&#9;&#9;c-0.3,1.7,0.2,3.5,0.9,5.1c0.4,1.1,0.9,2.1,1.4,3.1c-0.3-0.2-0.6-0.5-0.8-0.7c-1.2-1.5-2.3-3.1-3.5-4.6c-0.5-0.7-1-1.4-1.6-2.1&#10;&#9;&#9;&#9;&#9;c-0.3-0.4-0.6-0.9-0.9-1.3c-2.1-3.1-3.7-6.6-4.4-10.3c-0.2-1.1-0.4-2.3,0.2-3.3C282.5,802.5,283.8,805.1,286.2,806.5z"/>
			<g>
				<path fill="#EEAC77" d="M282,808.1c0,7.6-3,21.7-6.6,21.7c-3.7,0-6.6-14.1-6.6-21.7s3-13.8,6.6-13.8&#10;&#9;&#9;&#9;&#9;&#9;C279,794.3,282,800.5,282,808.1z"/>
				<path fill="#2D2B2A" d="M275.4,830.8c-5.1,0-7.7-16-7.7-22.8c0-8.3,3.4-14.8,7.7-14.8c4.3,0,7.7,6.5,7.7,14.8&#10;&#9;&#9;&#9;&#9;&#9;C283,814.9,280.4,830.8,275.4,830.8z M275.4,795.4c-2.6,0-5.6,5.2-5.6,12.7c0,8.5,3.3,20.6,5.6,20.6s5.6-12.2,5.6-20.6&#10;&#9;&#9;&#9;&#9;&#9;C280.9,800.6,278,795.4,275.4,795.4z"/>
			</g>
		</g><path fill="#F5EAAC" d="M263.4,803.7c0,0.5,0.4,0.9,0.7,1.3c0.3,0.3,0.6,0.6,1.1,0.6c0.7,0,1.1-0.7,1.4-1.3&#10;&#9;&#9;&#9;c0.4-0.8,0.7-1.6,0.8-2.4c0.1-0.9-0.1-1.8-0.8-2.4c-0.9,0.8-1.7,1.7-2.5,2.6C263.7,802.6,263.3,803.1,263.4,803.7z" transform="matrix(1, 0, 0, 1, -72.66490173339844, -468.284912109375)"/><path fill="#F5EAAC" d="M262.2,806c-0.3,0.1-0.5,0.3-0.6,0.6c-1.3,2.3-1.8,5-1.6,7.6c0,0.3,0.1,0.6,0.4,0.7&#10;&#9;&#9;&#9;c0.3,0.1,0.6-0.2,0.8-0.5c0.7-1.2,1.3-2.4,2-3.6c0.4-0.7,0.7-1.4,0.7-2.1C263.8,807.9,262.9,805.9,262.2,806z" transform="matrix(1, 0, 0, 1, -72.66490173339844, -468.284912109375)"/><path fill="#F5EAAC" d="M259.1,822.6c0.5-1.2,0.8-2.5,0.9-3.9c0-0.5,0-0.9-0.2-1.4c-0.2-0.4-0.6-0.8-1.1-0.8&#10;&#9;&#9;&#9;c-0.4,1.2-0.6,2.5-0.7,3.8c0,0.8,0,1.7,0.6,2.3c0,0.1,0.1,0.1,0.2,0.1C259,822.8,259.1,822.7,259.1,822.6z" transform="matrix(1, 0, 0, 1, -72.66490173339844, -468.284912109375)"/><path fill="#F5EAAC" d="M271.5,808.1c0.2,0.6,0.5,1.2,1.1,1.3c0.6,0.2,1.2-0.2,1.5-0.7c0.3-0.5,0.4-1.1,0.5-1.7&#10;&#9;&#9;&#9;c0.4-3.1,0.5-6.3,0.2-9.4c0-0.3-0.2-0.8-0.5-0.8c-0.2,0-0.3,0.2-0.4,0.3c-1.6,1.9-2.2,4.4-2.5,6.9&#10;&#9;&#9;&#9;C271.2,805.4,271.1,806.8,271.5,808.1z" transform="matrix(1, 0, 0, 1, -72.66490173339844, -468.284912109375)"/><path fill="#F5EAAC" d="M272.9,810.7c-0.2,0.1-0.5,0.2-0.6,0.4c-0.1,0.1-0.1,0.3-0.2,0.4c-0.4,1.8-0.1,3.8,0.4,5.6&#10;&#9;&#9;&#9;c0.1,0.4,0.3,0.9,0.6,1.3c0.2,0.2,0.4,0.3,0.7,0.3c0.4-0.1,0.6-0.5,0.7-0.9c0.3-1.4,0.4-2.8,0.4-4.2c0-0.7-0.1-1.3-0.4-1.9&#10;&#9;&#9;&#9;C274.3,811,273.6,810.6,272.9,810.7z" transform="matrix(1, 0, 0, 1, -72.66490173339844, -468.284912109375)"/><path fill="#F5EAAC" d="M286.9,801.9c-0.9-1-1.8-1.9-3-2.5c-0.2-0.1-0.3-0.1-0.5-0.1c-0.1,0.7,0.1,1.5,0.5,2.1&#10;&#9;&#9;&#9;c0.4,0.6,0.9,1.2,1.4,1.7c0.4,0.5,0.9,0.9,1.3,1.4c0.4,0.4,0.8,0.8,1.4,0.7c0.3-0.5,0.3-1.3,0.1-1.8&#10;&#9;&#9;&#9;C287.7,802.9,287.3,802.4,286.9,801.9z" transform="matrix(1, 0, 0, 1, -72.66490173339844, -468.284912109375)"/><path fill="#F5EAAC" d="M290.3,809.9c0.3-1.1-0.3-2.2-1-3.2c-0.2-0.3-0.5-0.6-0.8-0.4c-0.5,1.1-0.5,2.4,0.1,3.5&#10;&#9;&#9;&#9;c0.1,0.3,0.3,0.5,0.5,0.7s0.5,0.2,0.8,0.1C290.1,810.5,290.2,810.2,290.3,809.9z" transform="matrix(1, 0, 0, 1, -72.66490173339844, -468.284912109375)"/><path fill="#DD7F38" d="M275.1,827.1c1.2,0,1.9-1.3,2.3-2.4c2.2-6.2,3-12.9,2.1-19.5c-0.4-3.2-1.4-6.6-4-8.5&#10;&#9;&#9;&#9;c0.7,6.9,1,13.8,0.8,20.7c0,1.3-0.1,2.5-0.1,3.8C276.2,823.2,276,825.3,275.1,827.1z" transform="matrix(1, 0, 0, 1, -72.66490173339844, -468.284912109375)"/><path fill="#F7961D" d="M182,602.3c-10.3,24.3-16.3,50.7-25.5,75.5c-9.2,24.9-22.7,49.1-43.3,62.4c-4.2,2.7-8.8,4.9-13.5,4.6&#10;&#9;&#9;&#9;c0,0-0.1,0-0.1,0c-6.3-0.5-9.2-8.2-4.9-12.8c4.2-4.6,6.5-12.1,8.1-18.8c4.9-20.8,8.7-42.1,15.1-62.4c6.4-20.3,15.7-39.9,29.8-54.3&#10;&#9;&#9;&#9;s33.7-22.9,52.3-19C191.5,582.6,186.1,592.5,182,602.3z" transform="matrix(1, 0, 0, 1, -72.66490173339844, -468.284912109375)"/><path fill="#2D2B2A" d="M100.4,745.9c-0.3,0-0.6,0-0.9,0l-0.2,0c-3.3-0.2-6.1-2.3-7.3-5.4c-1.3-3.2-0.6-6.7,1.7-9.3&#10;&#9;&#9;&#9;c4.2-4.6,6.4-12.3,7.9-18.4c1.5-6.2,2.9-12.6,4.2-18.7c3.2-14.5,6.4-29.4,10.9-43.7c7.6-23.9,17.4-41.8,30.1-54.7&#10;&#9;&#9;&#9;c12.7-12.9,28.7-20.3,43.9-20.3c3.2,0,6.4,0.3,9.4,1c0.4,0.1,0.8,0.4,0.8,0.9s-0.1,0.9-0.5,1.1c-8.6,5.1-13.9,15.7-17.6,24.3&#10;&#9;&#9;&#9;c-5.9,13.9-10.4,28.7-14.8,43c-3.3,10.7-6.7,21.8-10.6,32.5c-11.4,30.7-25.7,51.3-43.7,62.9C110.5,743.2,105.6,745.9,100.4,745.9z&#10;&#9;&#9;&#9; M190.7,577.6c-14.7,0-30.1,7.2-42.4,19.6c-12.5,12.7-22.1,30.3-29.6,53.9c-4.5,14.2-7.7,29.1-10.9,43.5&#10;&#9;&#9;&#9;c-1.3,6.2-2.7,12.5-4.2,18.8c-1.5,6.4-3.8,14.3-8.4,19.3c-1.7,1.9-2.2,4.6-1.3,7c0.9,2.4,3,3.9,5.5,4l0.1,0&#10;&#9;&#9;&#9;c4.8,0.3,9.7-2.4,12.9-4.5c17.6-11.3,31.6-31.6,42.9-61.8c3.9-10.6,7.3-21.7,10.6-32.4c4.4-14.4,9-29.3,14.9-43.2&#10;&#9;&#9;&#9;c3.5-8.2,8.4-18,16.2-23.8C195,577.8,192.9,577.6,190.7,577.6z" transform="matrix(1, 0, 0, 1, -72.66490173339844, -468.284912109375)"/><path fill="#F7961D" d="M308.9,602.3c10.3,24.3,16.3,50.7,25.5,75.5c9.2,24.9,22.7,49.1,43.3,62.4c4.2,2.7,8.8,4.9,13.5,4.6&#10;&#9;&#9;&#9;c0,0,0.1,0,0.1,0c6.3-0.5,9.2-8.2,4.9-12.8c-4.2-4.6-6.5-12.1-8.1-18.8c-4.9-20.8-8.7-42.1-15.1-62.4&#10;&#9;&#9;&#9;c-6.4-20.3-15.7-39.9-29.8-54.3c-14.1-14.4-33.7-22.9-52.3-19C299.4,582.6,304.7,592.5,308.9,602.3z" transform="matrix(1, 0, 0, 1, -72.66490173339844, -468.284912109375)"/><path fill="#2D2B2A" d="M390.4,745.9c-5.2,0-10.1-2.8-13.3-4.8c-18-11.6-32.3-32.2-43.7-62.9c-4-10.7-7.4-21.8-10.6-32.5&#10;&#9;&#9;&#9;c-4.4-14.3-8.9-29.2-14.8-43c-3.7-8.6-9-19.2-17.6-24.3c-0.4-0.2-0.6-0.7-0.5-1.1s0.4-0.8,0.8-0.9c3.1-0.6,6.2-1,9.4-1&#10;&#9;&#9;&#9;c15.2,0,31.2,7.4,43.9,20.3c12.7,12.9,22.5,30.8,30.1,54.7c4.5,14.3,7.8,29.2,10.9,43.7c1.3,6.2,2.7,12.5,4.2,18.7&#10;&#9;&#9;&#9;c1.4,6.1,3.6,13.7,7.9,18.4c2.3,2.5,2.9,6.1,1.7,9.3c-1.2,3.1-4,5.1-7.3,5.4l-0.1,0C391,745.9,390.7,745.9,390.4,745.9z&#10;&#9;&#9;&#9; M293.6,578.1c7.8,5.8,12.7,15.6,16.2,23.8c5.9,14,10.5,28.8,14.9,43.2c3.3,10.7,6.7,21.8,10.6,32.4&#10;&#9;&#9;&#9;c11.3,30.3,25.3,50.5,42.9,61.8c3.2,2,8,4.8,12.9,4.5l0.1,0c2.5-0.2,4.6-1.7,5.5-4c1-2.4,0.5-5.1-1.3-7c-4.6-5-6.9-12.9-8.4-19.3&#10;&#9;&#9;&#9;c-1.5-6.2-2.9-12.6-4.2-18.8c-3.1-14.4-6.4-29.3-10.9-43.5c-7.5-23.6-17.1-41.2-29.6-53.9C328.4,582.9,310.1,575.7,293.6,578.1z" transform="matrix(1, 0, 0, 1, -72.66490173339844, -468.284912109375)"/><path fill="#2D2B2A" d="M108.8,803.3c-0.6,0-1.1-0.5-1.1-1.1v-59.5c0-0.6,0.5-1.1,1.1-1.1s1.1,0.5,1.1,1.1v59.5&#10;&#9;&#9;C109.9,802.8,109.4,803.3,108.8,803.3z" transform="matrix(1, 0, 0, 1, -72.66490173339844, -468.284912109375)"/><path fill="#2D2B2A" d="M377.7,784.3c-0.6,0-1.1-0.5-1.1-1.1v-43c0-0.6,0.5-1.1,1.1-1.1s1.1,0.5,1.1,1.1v43&#10;&#9;&#9;C378.7,783.8,378.2,784.3,377.7,784.3z" transform="matrix(1, 0, 0, 1, -72.66490173339844, -468.284912109375)"/><path d="M 132.600002 796.299988 A 23.799999 23.799999 0 0 1 108.800003 820.099987 A 23.799999 23.799999 0 0 1 85.000004 796.299988 A 23.799999 23.799999 0 0 1 108.800003 772.499989 A 23.799999 23.799999 0 0 1 132.600002 796.299988 Z" fill="#F7961D" transform="matrix(1, 0, 0, 1, -72.66490173339844, -468.284912109375)"/><path fill="#2D2B2A" d="M108.8,821.2c-13.7,0-24.9-11.2-24.9-24.9s11.2-24.9,24.9-24.9c13.7,0,24.9,11.2,24.9,24.9&#10;&#9;&#9;&#9;S122.6,821.2,108.8,821.2z M108.8,773.5c-12.6,0-22.8,10.2-22.8,22.8s10.2,22.8,22.8,22.8c12.6,0,22.8-10.2,22.8-22.8&#10;&#9;&#9;&#9;S121.4,773.5,108.8,773.5z" transform="matrix(1, 0, 0, 1, -72.66490173339844, -468.284912109375)"/><path d="M 401.600006 799.200012 A 19.5 19.5 0 0 1 382.100006 818.700012 A 19.5 19.5 0 0 1 362.600006 799.200012 A 19.5 19.5 0 0 1 382.100006 779.700012 A 19.5 19.5 0 0 1 401.600006 799.200012 Z" fill="#F7961D" transform="matrix(1, 0, 0, 1, -72.66490173339844, -468.284912109375)"/><path fill="#2D2B2A" d="M382.1,819.8c-11.4,0-20.6-9.2-20.6-20.6s9.2-20.6,20.6-20.6s20.6,9.2,20.6,20.6S393.4,819.8,382.1,819.8z&#10;&#9;&#9;&#9; M382.1,780.7c-10.2,0-18.5,8.3-18.5,18.5c0,10.2,8.3,18.5,18.5,18.5s18.5-8.3,18.5-18.5C400.5,789,392.3,780.7,382.1,780.7z" transform="matrix(1, 0, 0, 1, -72.66490173339844, -468.284912109375)"/><path fill="#F5EAAC" d="M366.1,798.2c-0.2,2.7,0.5,5.5,2.1,7.7s4,3.8,6.7,4.3c-4.4-4-7-9.9-6.9-15.8&#10;&#9;&#9;&#9;C366.7,795.1,366.2,796.7,366.1,798.2z" transform="matrix(1, 0, 0, 1, -72.66490173339844, -468.284912109375)"/><path fill="#F5EAAC" d="M376.3,788.2c-1,0.6-2,1.3-2.8,2.1c-1.9,1.9-2.5,4.7-3.1,7.3c-0.5-1.9-0.7-3.8-0.2-5.7&#10;&#9;&#9;&#9;c0.4-1.9,1.5-3.6,3.2-4.6c0.7-0.4,1.5-0.6,2.3-0.8c1.6-0.4,3.3-0.5,4.9-0.5c-0.7-0.1-1.4,0.3-2.1,0.7&#10;&#9;&#9;&#9;C377.9,787.2,377.1,787.7,376.3,788.2z" transform="matrix(1, 0, 0, 1, -72.66490173339844, -468.284912109375)"/><path fill="#F5EAAC" d="M391.7,789.3c1.1,1.8,1.2,4,1.3,6c-0.6-2.6-2.5-4.9-4.8-6.1c-2.4-1.2-5.3-1.4-7.8-0.4&#10;&#9;&#9;&#9;c1.3-1.8,3.5-2.9,5.8-2.8C388.4,786,390.6,787.3,391.7,789.3z" transform="matrix(1, 0, 0, 1, -72.66490173339844, -468.284912109375)"/><path fill="#F5EAAC" d="M372.1,803c0.2,0.8,0.4,1.5,0.9,2.2c1.2,1.6,3.4,2.1,4.8,3.6c-1.6-1.8-2.6-4.2-2.7-6.6&#10;&#9;&#9;&#9;c-0.1-2.7,1.1-5.3,2.8-7.4c1.7-2.1,4.1-3.6,6.5-4.6c-3.5-0.6-7.2,0.6-9.6,3.1C372.4,795.8,371.4,799.6,372.1,803z" transform="matrix(1, 0, 0, 1, -72.66490173339844, -468.284912109375)"/><path fill="#D67828" d="M389.5,794.1c-0.8-0.6-1.6-1.3-2.6-1.5c1.4,1.7,2.2,3.8,2,6c-0.2,2.2-1.4,4.3-3.3,5.3&#10;&#9;&#9;&#9;c1.8,0,3.5-0.8,4.7-2.2c1.1-1.4,1.5-3.3,1.1-5c-0.1-0.4-0.2-0.8-0.4-1.1C390.6,794.9,390,794.5,389.5,794.1z" transform="matrix(1, 0, 0, 1, -72.66490173339844, -468.284912109375)"/><path fill="#D67828" d="M396.6,801c0.2-1.7-0.5-3.4-1.6-4.7c0.4,2.4-0.1,5-1.4,7.1c-1.3,2.1-3.3,3.8-5.6,4.6&#10;&#9;&#9;&#9;c2.2,0.2,4.8,0.1,6.3-1.6c0.5-0.6,0.9-1.3,1.2-2C396,803.3,396.5,802.2,396.6,801z" transform="matrix(1, 0, 0, 1, -72.66490173339844, -468.284912109375)"/><path fill="#D67828" d="M390.1,804.3c-2,0.7-4.1,1.5-6.2,1.1c-2.1-0.4-3.9-1.8-5.2-3.5c-0.1,1.4-0.1,2.7,0.1,4.1&#10;&#9;&#9;&#9;c0.1,0.4,0.2,0.9,0.4,1.3c0.5,0.9,1.6,1.4,2.6,1.6c1.6,0.2,3.3-0.2,4.7-1.1C388,806.9,389.1,805.7,390.1,804.3z" transform="matrix(1, 0, 0, 1, -72.66490173339844, -468.284912109375)"/><path fill="#D67828" d="M376.7,811.4c0.8,1.4,2.3,2.4,3.8,2.8c1.6,0.4,3.3,0.2,4.8-0.4c1.9-0.7,3.7-2.2,3.9-4.2&#10;&#9;&#9;&#9;c-4.6,1.5-9.9,1-14.2-1.2C375.9,809.2,376.2,810.4,376.7,811.4z" transform="matrix(1, 0, 0, 1, -72.66490173339844, -468.284912109375)"/><path fill="#F5EAAC" d="M88.1,796.2c-0.3,3.6,0.7,7.4,2.9,10.3s5.4,5.1,9,5.9c-6-5.4-9.4-13.4-9.3-21.4&#10;&#9;&#9;&#9;C89,792.1,88.3,794.2,88.1,796.2z" transform="matrix(1, 0, 0, 1, -72.66490173339844, -468.284912109375)"/><path fill="#F5EAAC" d="M101.9,782.7c-1.3,0.8-2.7,1.7-3.8,2.8c-2.5,2.6-3.4,6.4-4.1,9.9c-0.6-2.5-0.9-5.2-0.3-7.7&#10;&#9;&#9;&#9;c0.6-2.5,2-4.9,4.3-6.2c1-0.5,2.1-0.9,3.1-1.1c2.2-0.5,4.4-0.7,6.7-0.7c-1-0.2-2,0.4-2.8,0.9C104,781.4,103,782,101.9,782.7z" transform="matrix(1, 0, 0, 1, -72.66490173339844, -468.284912109375)"/><path fill="#F5EAAC" d="M122.7,784.1c1.4,2.4,1.6,5.3,1.8,8.2c-0.9-3.5-3.3-6.6-6.5-8.2s-7.1-1.9-10.5-0.5c1.7-2.5,4.8-4,7.8-3.8&#10;&#9;&#9;&#9;C118.3,779.8,121.1,781.5,122.7,784.1z" transform="matrix(1, 0, 0, 1, -72.66490173339844, -468.284912109375)"/><path fill="#F5EAAC" d="M96.2,802.7c0.2,1,0.6,2.1,1.2,2.9c1.6,2.2,4.6,2.9,6.5,4.8c-2.1-2.5-3.5-5.6-3.6-8.9&#10;&#9;&#9;&#9;c-0.1-3.6,1.4-7.2,3.8-10s5.5-4.8,8.8-6.3c-4.7-0.8-9.7,0.8-13,4.2S95.2,798.1,96.2,802.7z" transform="matrix(1, 0, 0, 1, -72.66490173339844, -468.284912109375)"/><path fill="#D67828" d="M119.7,790.6c-1.1-0.9-2.2-1.7-3.6-2c1.8,2.3,2.9,5.2,2.7,8.1c-0.2,2.9-1.9,5.7-4.5,7.1&#10;&#9;&#9;&#9;c2.4,0,4.8-1.1,6.3-3c1.5-1.9,2.1-4.5,1.5-6.8c-0.1-0.5-0.3-1-0.6-1.5C121.1,791.8,120.4,791.2,119.7,790.6z" transform="matrix(1, 0, 0, 1, -72.66490173339844, -468.284912109375)"/><path fill="#D67828" d="M129.3,799.9c0.2-2.3-0.7-4.6-2.2-6.4c0.5,3.3-0.2,6.8-1.9,9.6c-1.7,2.9-4.4,5.1-7.6,6.2&#10;&#9;&#9;&#9;c3,0.3,6.5,0.1,8.5-2.1c0.7-0.8,1.1-1.7,1.6-2.7C128.5,803.1,129.2,801.6,129.3,799.9z" transform="matrix(1, 0, 0, 1, -72.66490173339844, -468.284912109375)"/><path fill="#D67828" d="M120.5,804.5c-2.7,1-5.5,2-8.4,1.5c-2.8-0.5-5.2-2.5-7-4.7c-0.2,1.8-0.1,3.7,0.2,5.5&#10;&#9;&#9;&#9;c0.1,0.6,0.2,1.2,0.5,1.7c0.7,1.3,2.1,1.9,3.5,2.1c2.2,0.3,4.5-0.3,6.4-1.5C117.6,807.9,119.2,806.3,120.5,804.5z" transform="matrix(1, 0, 0, 1, -72.66490173339844, -468.284912109375)"/><path fill="#D67828" d="M102.5,814.1c1.1,1.9,3,3.2,5.2,3.8c2.1,0.5,4.4,0.2,6.5-0.5c2.6-1,5-3,5.3-5.7c-6.3,2-13.4,1.4-19.2-1.7&#10;&#9;&#9;&#9;C101.4,811.1,101.7,812.7,102.5,814.1z" transform="matrix(1, 0, 0, 1, -72.66490173339844, -468.284912109375)"/><path fill="#F5EAAC" d="M161.9,640.6c5.5-19.5,13.8-38.3,24.6-55.4c0.7-1,1.3-2.1,1.4-3.4c0.1-1.2-0.7-2.6-1.9-2.7&#10;&#9;&#9;c-11.9,13.1-20.5,29.2-24.8,46.4C159.8,630.5,159,636.2,161.9,640.6z" transform="matrix(1, 0, 0, 1, -72.66490173339844, -468.284912109375)"/><path fill="#F5EAAC" d="M99.1,738.7c0.9,0.8,2.2,0.5,3.4,0.1c4.8-1.6,9.2-4,13.3-6.9c11.3-8,19.7-19.6,25.7-32.1&#10;&#9;&#9;c6-12.5,9.9-25.8,13.8-39.1c1.8-6,3.5-12.7,0.8-18.4c-4,18-8,36.2-16.1,52.7c-8.1,16.5-20.8,31.5-37.8,38.7c-1.1,0.5-2.2,0.9-3,1.8&#10;&#9;&#9;C98.4,736.4,98.2,737.9,99.1,738.7z" transform="matrix(1, 0, 0, 1, -72.66490173339844, -468.284912109375)"/><path fill="#F5EAAC" d="M333.7,648.4c1.9,4.2,4.1,8.7,7.9,11.3c-2-24-14.3-45.7-26.6-66.4c-3.2-5.4-6.8-11.1-12.7-13.2&#10;&#9;&#9;C312.8,602.8,323.3,625.6,333.7,648.4z" transform="matrix(1, 0, 0, 1, -72.66490173339844, -468.284912109375)"/><path fill="#F5EAAC" d="M336.2,663.6c4.7,15,11,29.6,19.9,42.5c9,12.9,20.7,24,34.8,31c0.9-1.8,0.3-4-1-5.6c-1.3-1.6-3-2.6-4.7-3.7&#10;&#9;&#9;c-18.3-11.8-29.3-32-39.1-51.5C343.7,671.5,340.9,666.3,336.2,663.6z" transform="matrix(1, 0, 0, 1, -72.66490173339844, -468.284912109375)"/><path fill="#F5EAAC" d="M186.1,510.1c-4.1,0.9-8.3,1.9-11.9,4.2c-3.5,2.3-6.3,6.3-6,10.5c40.3-16,85.3-17,128-9.8&#10;&#9;&#9;c13.1,2.2,26.6,5.5,37,13.9c-1.9-5.7-6.2-10.3-11.3-13.5c-5.1-3.2-10.9-5-16.6-6.5C266.4,498.8,225.2,501.6,186.1,510.1z" transform="matrix(1, 0, 0, 1, -72.66490173339844, -468.284912109375)"/><path fill="#F5EAAC" d="M142,582.3c0,0.6,0,1.5,0.6,1.7c0.6,0.3,1.3-0.3,1.7-0.9c2.1-3,3.1-6.8,2.6-10.4c-0.1-1.1-0.5-2.3-1.2-3.2&#10;&#9;&#9;c-0.8-0.8-2.1-1.2-3.1-0.6C142.4,573.4,142.2,577.9,142,582.3z" transform="matrix(1, 0, 0, 1, -72.66490173339844, -468.284912109375)"/><path fill="#F5EAAC" d="M153.1,570.4c0.1,1.1,0.2,2.2,0.7,3.1c0.5,0.9,1.5,1.7,2.6,1.6c1.7-0.1,2.6-2,3-3.7&#10;&#9;&#9;c0.4-1.6,0.6-3.3,0.6-4.9c0-1.3-0.1-2.7-0.8-3.8c-0.7-1.1-2-1.9-3.3-1.6c-1.7,0.4-2.4,2.4-2.6,4.1C153.1,567,153,568.7,153.1,570.4&#10;&#9;&#9;z" transform="matrix(1, 0, 0, 1, -72.66490173339844, -468.284912109375)"/><path fill="#F5EAAC" d="M173.4,567.6c0.8-0.4,1.1-1.2,1.4-2c1.3-3.3,1.8-6.9,1.6-10.4c-0.1-1.4-0.5-3-1.8-3.5&#10;&#9;&#9;c-1.4-0.5-2.8,0.7-3.7,1.9c-1.6,2-2.9,4.3-3.2,6.9c-0.3,2.6,0.7,5.3,2.8,6.8C171.4,567.7,172.5,568.1,173.4,567.6z" transform="matrix(1, 0, 0, 1, -72.66490173339844, -468.284912109375)"/><path fill="#F5EAAC" d="M189.1,551c-0.3,1.8-0.4,3.6-0.5,5.5c0,1.8,0.1,3.6,1,5.1c0.9,1.5,2.8,2.6,4.5,2c1.9-0.6,2.6-2.8,2.8-4.8&#10;&#9;&#9;c0.3-2.5-0.1-5.1-0.9-7.5c-0.4-1.2-1-2.3-2-3.1c-1-0.8-2.5-1-3.5-0.3C189.5,548.6,189.2,549.8,189.1,551z" transform="matrix(1, 0, 0, 1, -72.66490173339844, -468.284912109375)"/><path fill="#F5EAAC" d="M212.8,545.7c-1.6,3-2,6.6-1.1,9.9c0.6,2.1,2.1,4.2,4.3,4.3c2.3,0.1,4.1-2.2,4.8-4.5&#10;&#9;&#9;c0.7-2.4,0.8-5.1,0.2-7.6c-0.3-1.3-0.9-2.7-1.8-3.6c-1-1-2.5-1.5-3.8-1.1C214.2,543.6,213.4,544.6,212.8,545.7z" transform="matrix(1, 0, 0, 1, -72.66490173339844, -468.284912109375)"/><path fill="#F5EAAC" d="M245.6,552.2c0.9-3,1.1-6.6-1-8.9c-1.2-1.2-2.8-1.8-4.4-2.1c-1.5-0.3-3.3-0.2-4.4,0.8c-1.1,1-1.3,2.6-1.3,4&#10;&#9;&#9;c0,2.7,0.5,5.3,1.5,7.8c0.6,1.6,1.6,3.4,3.3,3.9c1.5,0.4,3.2-0.2,4.3-1.4S245.2,553.7,245.6,552.2z" transform="matrix(1, 0, 0, 1, -72.66490173339844, -468.284912109375)"/><path fill="#F5EAAC" d="M344.4,584.1c-0.2-2.5-0.3-5.1-0.3-7.6c0-1.1,0.1-2.3,0.6-3.3c0.6-1,1.8-1.7,2.9-1.3&#10;&#9;&#9;c0.7,0.2,1.1,0.8,1.5,1.4c1.6,2.3,2.7,4.9,3.3,7.6c0.5,2.1,0.6,4.5-0.4,6.4s-3.7,3-5.5,1.9C344.9,588.2,344.5,586,344.4,584.1z" transform="matrix(1, 0, 0, 1, -72.66490173339844, -468.284912109375)"/><path fill="#F5EAAC" d="M336,565.2c-0.3-1.5-0.9-3.1-2-4.1s-3.1-1.2-4.2-0.1c-0.5,0.6-0.7,1.4-0.8,2.1c-0.5,2.7-0.5,5.5-0.1,8.2&#10;&#9;&#9;c0.2,1.4,0.6,2.9,1.6,4c0.9,1.1,2.6,1.7,3.9,1.2c1.7-0.7,2.2-2.8,2.2-4.6C336.7,569.7,336.5,567.5,336,565.2z" transform="matrix(1, 0, 0, 1, -72.66490173339844, -468.284912109375)"/><path fill="#F5EAAC" d="M321.6,558.7c-0.3-1.5-0.9-3.1-2-4.1c-1.2-1-3.1-1.2-4.2-0.1c-0.5,0.6-0.7,1.4-0.8,2.1&#10;&#9;&#9;c-0.5,2.7-0.5,5.5-0.1,8.2c0.2,1.4,0.6,2.9,1.6,4c0.9,1.1,2.6,1.7,3.9,1.2c1.7-0.7,2.2-2.8,2.2-4.6&#10;&#9;&#9;C322.3,563.2,322.1,560.9,321.6,558.7z" transform="matrix(1, 0, 0, 1, -72.66490173339844, -468.284912109375)"/><path fill="#F5EAAC" d="M303.1,552.6c-0.3-1.5-0.9-3.1-2-4.1s-3.1-1.2-4.2-0.1c-0.5,0.6-0.7,1.4-0.8,2.1c-0.5,2.7-0.5,5.5-0.1,8.2&#10;&#9;&#9;c0.2,1.4,0.6,2.9,1.6,4c0.9,1.1,2.6,1.7,3.9,1.2c1.7-0.7,2.2-2.8,2.2-4.6C303.8,557.1,303.6,554.8,303.1,552.6z" transform="matrix(1, 0, 0, 1, -72.66490173339844, -468.284912109375)"/><path fill="#F5EAAC" d="M279,549.8c-0.3-1.5-0.9-3.1-2-4.1c-1.2-1-3.1-1.2-4.2-0.1c-0.5,0.6-0.7,1.4-0.8,2.1&#10;&#9;&#9;c-0.5,2.7-0.5,5.5-0.1,8.2c0.2,1.4,0.6,2.9,1.6,4c0.9,1.1,2.6,1.7,3.9,1.2c1.7-0.7,2.2-2.8,2.2-4.6&#10;&#9;&#9;C279.7,554.3,279.5,552,279,549.8z" transform="matrix(1, 0, 0, 1, -72.66490173339844, -468.284912109375)"/><path fill="#F5EAAC" d="M129.8,644.7c-3.6,2.7-7.1,5.9-9,10c-2.8,5.8-2,12.7-4.1,18.8c8.6-10.6,20.3-18.7,33.2-23.2&#10;&#9;&#9;c0.8-6.5,2.5-12.9,5.1-19C145.9,634.4,137.4,638.9,129.8,644.7z" transform="matrix(1, 0, 0, 1, -72.66490173339844, -468.284912109375)"/><path fill="#F5EAAC" d="M349.7,665.7c2.4,2.1,5.6,2.9,8.7,3.8c6.7,1.9,13.2,4.4,19.5,7.5c-5.4-6.3-3.4-17.1-9.7-22.5&#10;&#9;&#9;c-1.6-1.4-3.6-2.2-5.5-3c-7.1-2.8-14.4-5.3-21.5-8.2C345.9,649.9,343.6,660.3,349.7,665.7z" transform="matrix(1, 0, 0, 1, -72.66490173339844, -468.284912109375)"/><path fill="#2D2B2A" d="M379.8,639.8c-0.1,0.5-4,0-8.8,0.1c-4.8,0.2-8.7,0.8-8.8,0.3c-0.1-0.4,3.8-1.7,8.8-1.9&#10;&#9;&#9;&#9;C376,638.2,379.9,639.4,379.8,639.8z" transform="matrix(1, 0, 0, 1, -72.66490173339844, -468.284912109375)"/><path fill="#2D2B2A" d="M370.8,626.1c-0.1,0.5-3.1,0.5-6.9,1c-3.7,0.7-6.6,1.6-6.8,1.2c-0.2-0.3,2.6-2.1,6.6-2.8&#10;&#9;&#9;&#9;C367.7,625,370.9,625.7,370.8,626.1z" transform="matrix(1, 0, 0, 1, -72.66490173339844, -468.284912109375)"/><path fill="#2D2B2A" d="M394.5,693.5c-0.1,0.2-1.3-0.1-3.1-0.5c-1.8-0.5-4.4-1-7.2-1.5c-2.8-0.4-5.4-0.5-7.3-0.6&#10;&#9;&#9;&#9;c-1.9-0.1-3.1-0.1-3.1-0.4c0-0.2,1.1-0.5,3.1-0.8c1.9-0.2,4.6-0.2,7.6,0.2c2.9,0.4,5.5,1.2,7.3,2&#10;&#9;&#9;&#9;C393.6,692.6,394.6,693.3,394.5,693.5z" transform="matrix(1, 0, 0, 1, -72.66490173339844, -468.284912109375)"/><path fill="#2D2B2A" d="M396.2,706.3c-0.2,0.5-4-0.8-8.8-1.8c-4.8-0.9-8.9-1.1-8.9-1.6c0-0.4,4.1-0.9,9.2,0&#10;&#9;&#9;&#9;C392.7,703.9,396.4,706,396.2,706.3z" transform="matrix(1, 0, 0, 1, -72.66490173339844, -468.284912109375)"/><path fill="#2D2B2A" d="M115.5,621.8c-0.1-0.4,5.2-1.4,11.8-1.6c6.6,0,11.9,0.9,11.9,1.3c0,0.5-5.3,0.3-11.8,0.4&#10;&#9;&#9;&#9;C120.8,622,115.5,622.3,115.5,621.8z" transform="matrix(1, 0, 0, 1, -72.66490173339844, -468.284912109375)"/><path fill="#2D2B2A" d="M116.9,633.1c-0.1-0.2,0.5-0.8,1.6-1.7c1.1-0.8,2.9-1.7,5-2.4c2.1-0.6,4.1-0.7,5.5-0.6&#10;&#9;&#9;&#9;c1.4,0.1,2.3,0.4,2.2,0.6c0,0.2-0.9,0.4-2.2,0.6c-1.3,0.2-3.1,0.5-5.1,1c-1.9,0.6-3.6,1.3-4.9,1.8&#10;&#9;&#9;&#9;C117.8,633,117,633.3,116.9,633.1z" transform="matrix(1, 0, 0, 1, -72.66490173339844, -468.284912109375)"/><path fill="#2D2B2A" d="M95.8,695.3c-0.2-0.3,4.1-2.7,10-4.1c5.9-1.3,10.8-1.2,10.8-0.8c0,0.5-4.7,1.1-10.4,2.4&#10;&#9;&#9;&#9;C100.5,694.1,96,695.7,95.8,695.3z" transform="matrix(1, 0, 0, 1, -72.66490173339844, -468.284912109375)"/><path fill="#2D2B2A" d="M93.7,710.4c-0.2-0.1,0.4-1.2,1.7-2.6c1.3-1.4,3.3-3.2,5.9-4.6c2.6-1.3,5.2-2,7.1-2.3&#10;&#9;&#9;&#9;c1.9-0.2,3.1-0.1,3.1,0.1c0,0.2-1.1,0.5-2.9,1c-1.8,0.5-4.1,1.3-6.6,2.6c-2.4,1.3-4.4,2.8-5.9,4C94.8,709.7,93.9,710.5,93.7,710.4&#10;&#9;&#9;&#9;z" transform="matrix(1, 0, 0, 1, -72.66490173339844, -468.284912109375)"/><path d="M 367.000012 642.299988 A 0.8 0.2 0 0 1 366.200012 642.499988 A 0.8 0.2 0 0 1 365.400012 642.299988 A 0.8 0.2 0 0 1 366.200012 642.099988 A 0.8 0.2 0 0 1 367.000012 642.299988 Z" fill="#2D2B2A" transform="matrix(1, 0, 0, 1, -72.66490173339844, -468.284912109375)"/><path fill="#2D2B2A" d="M174.8,749.8c-0.4-0.2,0.7-3.3,3-6.7c2.4-3.3,5.1-5.3,5.3-5c0.3,0.4-1.7,2.8-4,5.9&#10;&#9;&#9;&#9;C176.9,747.2,175.3,750,174.8,749.8z" transform="matrix(1, 0, 0, 1, -72.66490173339844, -468.284912109375)"/><path fill="#2D2B2A" d="M181.8,766.1c-0.4,0-0.5-3.4,0.7-7.3c1.3-3.9,3.3-6.6,3.7-6.4c0.4,0.3-0.9,3.2-2.1,6.8&#10;&#9;&#9;&#9;C182.9,763,182.3,766.1,181.8,766.1z" transform="matrix(1, 0, 0, 1, -72.66490173339844, -468.284912109375)"/><path d="M 307.7 760.400024 A 9.2 0.8 0 0 1 298.5 761.200024 A 9.2 0.8 0 0 1 289.3 760.400024 A 9.2 0.8 0 0 1 298.5 759.600024 A 9.2 0.8 0 0 1 307.7 760.400024 Z" transform="matrix(0.5234000086784363, 0.8521000146865845, -0.8521000146865845, 0.5234000086784363, 717.5639801025391, -360.1879119873047)" fill="#2D2B2A"/><path d="M 315.899988 752.599976 A 6.6 0.8 0 0 1 309.299988 753.399976 A 6.6 0.8 0 0 1 302.699988 752.599976 A 6.6 0.8 0 0 1 309.299988 751.799976 A 6.6 0.8 0 0 1 315.899988 752.599976 Z" transform="matrix(0.6429000496864319, 0.7658999562263489, -0.7658999562263489, 0.6429000496864319, 614.2005767822266, -436.4670104980469)" fill="#2D2B2A"/><path fill="#2D2B2A" d="M192.3,720.3c-0.2,0-0.2-1,0.1-2.4c0.3-1.4,0.9-3.3,2-5.3c1.1-1.9,2.4-3.5,3.4-4.5c1.1-1,1.9-1.5,2-1.3&#10;&#9;&#9;&#9;c0.2,0.2-0.3,0.9-1.1,2c-0.8,1.1-1.9,2.7-2.9,4.5c-1,1.8-1.8,3.6-2.3,4.9C192.9,719.5,192.6,720.3,192.3,720.3z" transform="matrix(1, 0, 0, 1, -72.66490173339844, -468.284912109375)"/><path fill="#2D2B2A" d="M202.4,725.3c-0.4,0-0.7-2.7,0.1-5.9c0.9-3.2,2.4-5.4,2.7-5.2c0.4,0.2-0.4,2.6-1.2,5.6&#10;&#9;&#9;&#9;C203.3,722.8,202.9,725.3,202.4,725.3z" transform="matrix(1, 0, 0, 1, -72.66490173339844, -468.284912109375)"/><path fill="#2D2B2A" d="M308.3,720.8c-0.2,0.1-0.8-1.3-1.8-3.4c-1-2.1-2.4-5-4.3-8c-1.9-3-3.9-5.5-5.5-7.2c-1.5-1.7-2.5-2.8-2.4-3&#10;&#9;&#9;&#9;c0.1-0.2,1.4,0.6,3.2,2.2c1.8,1.6,4,4.1,6,7.2c2,3.1,3.3,6.2,4,8.4C308.3,719.2,308.5,720.7,308.3,720.8z" transform="matrix(1, 0, 0, 1, -72.66490173339844, -468.284912109375)"/><path fill="#2D2B2A" d="M314.8,710.8c-0.2,0.1-0.7-0.5-1.4-1.5c-0.7-1-1.6-2.3-2.8-3.6c-1.2-1.3-2.3-2.5-3.1-3.3&#10;&#9;&#9;&#9;c-0.8-0.8-1.3-1.4-1.2-1.6c0.1-0.2,0.9,0.1,1.9,0.7c1.1,0.7,2.4,1.8,3.6,3.2c1.2,1.5,2.1,3,2.5,4.1&#10;&#9;&#9;&#9;C314.9,709.9,315,710.7,314.8,710.8z" transform="matrix(1, 0, 0, 1, -72.66490173339844, -468.284912109375)"/><path d="M 297.800006 727.700012 A 4.7 0.8 0 0 1 293.100006 728.500012 A 4.7 0.8 0 0 1 288.400006 727.700012 A 4.7 0.8 0 0 1 293.100006 726.900012 A 4.7 0.8 0 0 1 297.800006 727.700012 Z" transform="matrix(0.2974000573158264, 0.9547001123428345, -0.9547001123428345, 0.2974000573158264, 828.0113677978516, -236.83230590820312)" fill="#2D2B2A"/><path fill="#2D2B2A" d="M287.5,782.8c-0.5-0.1-0.3-3.5-0.6-7.8c-0.4-4.2-1.1-7.6-0.6-7.8c0.4-0.1,1.8,3.2,2.2,7.6&#10;&#9;&#9;&#9;C288.8,779.3,287.8,782.9,287.5,782.8z" transform="matrix(1, 0, 0, 1, -72.66490173339844, -468.284912109375)"/><path fill="#2D2B2A" d="M304.8,670.8c0.1,0.2-1.3,1.2-3.7,2.4c-2.5,1.2-6.1,2.4-10.3,3c-4.2,0.5-8,0.3-10.7-0.1&#10;&#9;&#9;&#9;c-2.7-0.5-4.3-1.1-4.3-1.3c0.1-0.2,1.7-0.1,4.4,0.1c2.7,0.2,6.3,0.2,10.4-0.3c4-0.6,7.5-1.6,10.1-2.5&#10;&#9;&#9;&#9;C303.2,671.2,304.7,670.5,304.8,670.8z" transform="matrix(1, 0, 0, 1, -72.66490173339844, -468.284912109375)"/><path fill="#2D2B2A" d="M314.9,673.8c0.1,0.2-0.5,0.9-1.7,1.8c-1.2,0.9-3,1.9-5.2,2.7c-2.2,0.7-4.3,0.9-5.8,0.9&#10;&#9;&#9;&#9;c-1.5-0.1-2.4-0.3-2.4-0.5c0-0.2,0.9-0.4,2.3-0.6c1.4-0.3,3.3-0.6,5.4-1.3c2-0.7,3.8-1.5,5.1-2.1&#10;&#9;&#9;&#9;C313.9,674,314.7,673.7,314.9,673.8z" transform="matrix(1, 0, 0, 1, -72.66490173339844, -468.284912109375)"/><path fill="#2D2B2A" d="M204.9,673.8c0.1,0.2-1.3,0.7-3.5,1.2c-2.3,0.4-5.5,0.6-9,0c-3.5-0.6-6.5-1.9-8.5-3c-2-1.2-3-2.1-2.9-2.3&#10;&#9;&#9;&#9;c0.1-0.2,1.4,0.4,3.4,1.3c2.1,0.8,4.9,1.8,8.3,2.4c3.3,0.5,6.4,0.6,8.6,0.5C203.4,673.7,204.8,673.6,204.9,673.8z" transform="matrix(1, 0, 0, 1, -72.66490173339844, -468.284912109375)"/><path d="M 197.800003 681.799988 A 5.5 0.8 0 0 1 192.300003 682.599988 A 5.5 0.8 0 0 1 186.800003 681.799988 A 5.5 0.8 0 0 1 192.300003 680.999988 A 5.5 0.8 0 0 1 197.800003 681.799988 Z" fill="#2D2B2A" transform="matrix(1, 0, 0, 1, -72.66490173339844, -468.284912109375)"/><path fill="#2D2B2A" d="M315.8,490.8c0.1,0.2-0.6,0.8-1.6,1.6c-1,0.8-2.4,2-3.8,3.5c-1.3,1.5-2.4,3-3.1,4.1&#10;&#9;&#9;&#9;c-0.7,1.1-1.2,1.9-1.4,1.8c-0.2-0.1-0.1-1,0.4-2.3c0.5-1.3,1.5-3.1,3-4.7c1.5-1.6,3.1-2.8,4.4-3.4&#10;&#9;&#9;&#9;C314.9,490.8,315.7,490.6,315.8,490.8z" transform="matrix(1, 0, 0, 1, -72.66490173339844, -468.284912109375)"/><path fill="#2D2B2A" d="M327.8,501.8c0,0.2-1,0.3-2.4,0.4c-1.4,0.2-3.4,0.6-5.4,1.5c-1.9,1-3.5,2.2-4.5,3.2c-1,1-1.6,1.7-1.8,1.6&#10;&#9;&#9;&#9;c-0.2-0.1,0.1-1,1-2.4c0.9-1.3,2.5-2.9,4.7-4c2.2-1,4.4-1.3,6-1.2C327,501.3,327.9,501.7,327.8,501.8z" transform="matrix(1, 0, 0, 1, -72.66490173339844, -468.284912109375)"/><path d="M 177.400003 506.799988 A 7.6 0.8 0 0 1 169.800003 507.599988 A 7.6 0.8 0 0 1 162.200003 506.799988 A 7.6 0.8 0 0 1 169.800003 505.999988 A 7.6 0.8 0 0 1 177.400003 506.799988 Z" transform="matrix(0.9191001057624817, 0.3939000070095062, -0.3939000070095062, 0.9191001057624817, 140.6934051513672, -494.21281242370605)" fill="#2D2B2A"/><path d="M 183.300003 501.799988 A 4.5 0.8 0 0 1 178.800003 502.599988 A 4.5 0.8 0 0 1 174.300003 501.799988 A 4.5 0.8 0 0 1 178.800003 500.999988 A 4.5 0.8 0 0 1 183.300003 501.799988 Z" transform="matrix(0.8944000005722046, 0.4472000002861023, -0.4472000002861023, 0.8944000005722046, 170.62750244140625, -495.2873115539551)" fill="#2D2B2A"/><path fill="#2D2B2A" d="M169.7,535.1c0,0.1-0.4,0.1-1.1,0.1c-0.3,0-0.7-0.1-1.2-0.1c-0.5-0.1-1-0.2-1.5-0.2&#10;&#9;&#9;&#9;c-2.3-0.2-5.5-0.2-8.9,0.5c-3.4,0.7-6.3,2-8.4,3c-0.5,0.2-1,0.5-1.4,0.8c-0.4,0.2-0.7,0.4-1,0.6c-0.6,0.3-0.9,0.4-1,0.4&#10;&#9;&#9;&#9;s0.2-0.4,0.6-0.9c0.2-0.2,0.5-0.5,0.9-0.8c0.4-0.3,0.8-0.7,1.3-1c2-1.4,5-2.9,8.7-3.6c3.7-0.7,7-0.5,9.4,0&#10;&#9;&#9;&#9;c0.6,0.1,1.1,0.3,1.6,0.4c0.5,0.2,0.8,0.3,1.2,0.4C169.5,534.8,169.8,535,169.7,535.1z" transform="matrix(1, 0, 0, 1, -72.66490173339844, -468.284912109375)"/><path d="M 240.900003 516.799988 A 6.1 0.8 0 0 1 234.800003 517.599988 A 6.1 0.8 0 0 1 228.700003 516.799988 A 6.1 0.8 0 0 1 234.800003 515.999988 A 6.1 0.8 0 0 1 240.900003 516.799988 Z" transform="matrix(0.9864000082015991, 0.16439998149871826, -0.16439998149871826, 0.9864000082015991, 15.486595153808594, -499.86091232299805)" fill="#2D2B2A"/><path d="M 249.000003 512.400024 A 5.2 0.8 0 0 1 243.800003 513.200024 A 5.2 0.8 0 0 1 238.600003 512.400024 A 5.2 0.8 0 0 1 243.800003 511.600024 A 5.2 0.8 0 0 1 249.000003 512.400024 Z" transform="matrix(0.9574001431465149, 0.2886999845504761, -0.2886999845504761, 0.9574001431465149, 85.63279724121094, -516.8475112915039)" fill="#2D2B2A"/><path d="M 315.9 531 A 7.4 0.8 0 0 1 308.5 531.8 A 7.4 0.8 0 0 1 301.1 531 A 7.4 0.8 0 0 1 308.5 530.2 A 7.4 0.8 0 0 1 315.9 531 Z" transform="matrix(0.8776000142097473, 0.47940006852149963, -0.47940006852149963, 0.8776000142097473, 219.6529083251953, -551.1879119873047)" fill="#2D2B2A"/><path d="M 325.999988 530.299988 A 4.7 0.8 0 0 1 321.299988 531.099988 A 4.7 0.8 0 0 1 316.599988 530.299988 A 4.7 0.8 0 0 1 321.299988 529.499988 A 4.7 0.8 0 0 1 325.999988 530.299988 Z" transform="matrix(0.9487001299858093, 0.31620001792907715, -0.31620001792907715, 0.9487001299858093, 111.51089477539062, -542.6894149780273)" fill="#2D2B2A"/><path d="M 274.700006 488.399994 A 7.6 0.8 0 0 1 267.100006 489.199994 A 7.6 0.8 0 0 1 259.500006 488.399994 A 7.6 0.8 0 0 1 267.100006 487.599994 A 7.6 0.8 0 0 1 274.700006 488.399994 Z" transform="matrix(0.8475001454353333, -0.530799925327301, 0.530799925327301, 0.8475001454353333, -291.1925048828125, -251.99290466308594)" fill="#2D2B2A"/>
</svg>